<?xml version="1.0" encoding="UTF-8"?>
<svg id="Capa_2" data-name="Capa 2" xmlns="http://www.w3.org/2000/svg" xmlns:xlink="http://www.w3.org/1999/xlink" viewBox="0 0 683.49 84.88">
  <defs>
    <style>
      .cls-1 {
        fill: #e1edd5;
      }

      .cls-2 {
        fill: url(#Degradado_sin_nombre_2);
      }

      .cls-3 {
        fill: #32523a;
      }

      .cls-4 {
        fill: #74b74a;
      }
    </style>
    <linearGradient id="Degradado_sin_nombre_2" data-name="Degradado sin nombre 2" x1="632.1" y1="9.83" x2="631.15" y2="85.23" gradientUnits="userSpaceOnUse">
      <stop offset="0" stop-color="#74b74a"/>
      <stop offset=".51" stop-color="#32523a"/>
      <stop offset="1" stop-color="#19291d"/>
    </linearGradient>
  </defs>
  <g id="Capa_1-2" data-name="Capa 1">
    <g>
      <g>
        <g>
          <path class="cls-1" d="m31.39,53.04c-1.92-1.19-3.97-2.22-6.15-3.1s-4.24-1.76-6.19-2.66c-1.95-.9-3.55-1.98-4.8-3.23-1.25-1.25-1.87-2.8-1.87-4.66,0-2.21.78-3.91,2.35-5.1,1.57-1.19,3.54-1.79,5.93-1.79s4.39.47,6.19,1.4l2.79,8.54,5.49-.35-.96-12.73c-1.1-.52-2.38-.96-3.84-1.31-1.45-.35-2.95-.62-4.49-.83-1.54-.2-2.98-.3-4.32-.3-4.24,0-7.98.67-11.2,2.01-3.23,1.34-5.73,3.2-7.5,5.58-1.77,2.38-2.66,5.12-2.66,8.2,0,2.91.61,5.3,1.83,7.19,1.22,1.89,2.77,3.43,4.66,4.62,1.89,1.19,3.91,2.19,6.06,3.01,2.15.81,4.18,1.67,6.1,2.57,1.92.9,3.49,1.96,4.71,3.18,1.22,1.22,1.83,2.85,1.83,4.88,0,1.86-.7,3.34-2.09,4.45-1.39,1.11-3.4,1.66-6.02,1.66-1.45,0-2.98-.2-4.58-.61-1.6-.41-2.98-1.02-4.14-1.83l-2.96-8.98-5.58.35.44,12.9c2.09,1.16,4.61,2.09,7.54,2.79,2.93.7,5.65,1.05,8.15,1.05,4.36,0,8.18-.67,11.46-2.01,3.28-1.34,5.83-3.18,7.63-5.54,1.8-2.35,2.7-5.01,2.7-7.98,0-2.79-.61-5.09-1.83-6.89-1.22-1.8-2.79-3.3-4.71-4.49Z"/>
          <path class="cls-1" d="m59.07,70.43c-.09-1.74-.13-3.57-.13-5.49v-11.07c0-2.38.04-4.52.13-6.41.09-1.89.22-3.76.39-5.62l-2.35-1.48-16.04,3.92v3.92l5.84,1.22c.29,1.45.49,2.88.61,4.27.12,1.4.17,2.94.17,4.62l-.09,6.63c0,1.4-.03,2.73-.09,4.01-.06,1.28-.13,2.33-.22,3.14-.09.81-.16,1.37-.22,1.66l-5.75,1.22.26,4.18h23.37l.26-4.18-5.75-1.22c-.17-.46-.31-1.57-.39-3.31Z"/>
          <path class="cls-1" d="m98.04,70.39c-1.6.73-3.42,1.09-5.45,1.09-3.66,0-6.58-1.25-8.76-3.75-1.91-2.19-2.98-4.98-3.22-8.37h24.36v-2.09c0-5.06-1.4-9.17-4.18-12.34-2.79-3.17-6.74-4.75-11.86-4.75-3.43-.06-6.64.78-9.63,2.53-2.99,1.74-5.41,4.14-7.24,7.19-1.83,3.05-2.75,6.61-2.75,10.68,0,3.66.81,6.95,2.44,9.85,1.63,2.91,3.91,5.2,6.84,6.89,2.93,1.69,6.29,2.53,10.07,2.53s6.89-.9,9.85-2.7c2.96-1.8,5.26-4.45,6.89-7.93l-2.62-2.53c-1.57,1.74-3.15,2.98-4.75,3.71Zm-16.48-20.49c.67-1.66,1.6-2.89,2.79-3.71,1.19-.81,2.48-1.22,3.88-1.22,2.15,0,3.82.8,5.01,2.4,1.19,1.6,1.79,3.79,1.79,6.58v.87h-14.43c.1-1.92.41-3.57.96-4.93Z"/>
          <path class="cls-1" d="m176.55,70.39c-.06-1.71-.09-3.56-.09-5.54l-.17-8.98c0-3.31-.58-6.13-1.74-8.46-1.16-2.32-2.81-4.11-4.93-5.36-2.12-1.25-4.55-1.87-7.28-1.87s-5.27.71-7.63,2.14c-1.83,1.11-3.57,2.65-5.24,4.61-1.21-2.24-2.78-3.93-4.69-5.04-1.95-1.13-4.08-1.7-6.41-1.7-2.15,0-4.24.54-6.28,1.61-2.04,1.08-3.95,2.8-5.75,5.19l-.26-.09.44-5.06-2.35-1.48-15.34,3.92v3.92l5.58,1.22c.17.99.32,1.96.44,2.92.12.96.19,1.92.22,2.88.03.96.07,1.99.13,3.1l-.09,6.63c0,1.4-.03,2.72-.09,3.97-.06,1.25-.13,2.3-.22,3.14-.09.84-.16,1.41-.22,1.7l-5.4,1.4.35,4.01h21.88l.26-4.01-4.88-1.4c-.12-.46-.22-1.57-.31-3.31-.09-1.74-.13-3.57-.13-5.49v-12.9c.87-1.22,1.96-2.15,3.27-2.79,1.31-.64,2.6-.96,3.88-.96s2.35.26,3.4.78c1.05.52,1.87,1.41,2.48,2.66.61,1.25.92,2.92.92,5.01l.09,8.2c0,1.05-.02,2.15-.04,3.31-.03,1.16-.07,2.22-.13,3.18-.06.96-.15,1.73-.26,2.31l-4.53,1.4.26,4.01h20.75l.26-4.01-4.8-1.4c-.12-.52-.2-1.64-.26-3.36-.06-1.71-.09-3.56-.09-5.54l-.17-9.07c0-1.54-.12-2.95-.35-4.26.84-.97,1.81-1.74,2.92-2.28,1.31-.64,2.66-.96,4.05-.96s2.54.29,3.62.87c1.07.58,1.95,1.57,2.62,2.96.67,1.4,1,3.2,1,5.41l.17,7.41c0,1.05-.03,2.15-.09,3.31-.06,1.16-.1,2.22-.13,3.18-.03.96-.1,1.73-.22,2.31l-4.53,1.4.26,4.01h21.36l.26-4.01-5.41-1.4c-.17-.52-.29-1.64-.35-3.36Z"/>
          <path class="cls-1" d="m220.66,42.32c-2.44-1.42-5.12-2.14-8.02-2.14-2.38,0-4.64.65-6.76,1.96-2.12,1.31-3.82,2.83-5.1,4.58l-.26-.09c.17-4.59.29-8.43.35-11.51.06-3.08.13-5.8.22-8.15.09-2.35.22-4.72.39-7.11l-2.44-1.48-16.39,4.27.17,3.75,6.45.78c0,.58.01,1.5.04,2.75.03,1.25.06,2.73.09,4.45.03,1.71.06,3.68.09,5.88.03,2.21.04,4.68.04,7.41v16.87c0,2.12-.02,4.18-.04,6.19-.03,2.01-.1,3.97-.22,5.88,2.62,1.05,5.25,1.85,7.89,2.4,2.64.55,5.33.83,8.06.83,4.88,0,9.11-.99,12.69-2.96,3.57-1.98,6.3-4.62,8.19-7.93,1.89-3.31,2.83-6.97,2.83-10.99,0-3.72-.77-6.9-2.31-9.55-1.54-2.64-3.53-4.68-5.97-6.1Zm-6.5,27.99c-1.77,2-4,3.01-6.67,3.01-1.22,0-2.43-.2-3.62-.61-1.19-.41-2.22-.93-3.1-1.57v-19.7c.87-.93,1.89-1.66,3.05-2.18,1.16-.52,2.38-.78,3.66-.78,2.5,0,4.69.95,6.58,2.83,1.89,1.89,2.83,4.98,2.83,9.29-.06,4.48-.97,7.72-2.75,9.72Z"/>
          <path class="cls-1" d="m264.78,41.75c-1.16-.87-2.53-1.31-4.1-1.31-1.86,0-3.65.58-5.36,1.74-1.72,1.16-3.39,3.4-5.01,6.71l-.26-.09.35-7.06-2.35-1.4-15.08,3.92v3.92l5.58,1.22c.29,1.51.49,2.95.61,4.32.12,1.37.17,2.89.17,4.58l-.09,6.63c0,1.4-.04,2.72-.13,3.97-.09,1.25-.16,2.3-.22,3.14-.06.84-.12,1.41-.17,1.7l-5.41,1.4.26,4.01h24.85l.26-4.18-7.58-1.31c-.06-.41-.12-1.16-.17-2.27-.06-1.1-.1-2.51-.13-4.23-.03-1.71-.07-3.65-.13-5.8l-.09-6.89c.64-1.22,1.35-2.34,2.14-3.36.43-.56.89-1.06,1.37-1.51.83.66,1.61,1.16,2.34,1.46,1.1.47,2.35.7,3.75.7,1.69,0,3.17-.52,4.45-1.57,1.28-1.05,1.92-2.5,1.92-4.36s-.58-3.23-1.74-4.1Z"/>
          <path class="cls-1" d="m304.88,71.3c-.29-.52-.48-1.23-.57-2.14-.09-.9-.13-2.19-.13-3.88l.26-12.12c0-4.01-1.53-7.18-4.58-9.5-3.05-2.32-7.16-3.49-12.34-3.49-1.34.12-2.91.54-4.71,1.26-1.8.73-3.57,1.6-5.32,2.62-1.74,1.02-3.18,2.11-4.32,3.27-1.13,1.16-1.7,2.3-1.7,3.4,0,1.8.93,3.1,2.79,3.88,1.86.78,4.21.89,7.06.3l.44-5.32c.12-1.22.36-2.08.74-2.57.38-.49,1.03-.74,1.96-.74,1.45,0,2.83.35,4.14,1.05,1.31.7,2.34,1.6,3.1,2.7.75,1.11,1.13,2.27,1.13,3.49v3.14l-13.69,4.1c-2.73.76-4.75,1.85-6.06,3.27-1.31,1.43-1.96,3.18-1.96,5.27,0,1.45.51,2.99,1.53,4.62,1.02,1.63,2.49,3.02,4.4,4.18s4.24,1.74,6.97,1.74c1.74,0,3.56-.64,5.45-1.92,1.48-1,2.94-2.31,4.37-3.88l.91,2.31c.87,2.33,2.44,3.49,4.71,3.49.81,0,1.67-.12,2.57-.35.9-.23,1.87-.55,2.92-.96l5.58-2.44v-3.75l-5.67-1.05Zm-11.94-1.31c-.64.76-1.35,1.28-2.14,1.57-.78.29-1.58.44-2.4.44-1.4,0-2.65-.54-3.75-1.61-1.11-1.07-1.66-2.28-1.66-3.62,0-1.16.32-2.09.96-2.79.64-.7,1.66-1.13,3.05-1.31l5.93-1.13v8.46Z"/>
        </g>
        <g>
          <path class="cls-1" d="m71.1,2.83l-.25-.99c-.16-.63-.57-1.17-1.13-1.5-.38-.23-.81-.34-1.25-.34-.2,0-.41.03-.61.08l-.99.25c-7.55,1.94-13.89,6.7-17.86,13.4-3.97,6.71-5.09,14.56-3.15,22.1l.17.66c.03.12.05.24.08.36.16.63.57,1.17,1.13,1.5.38.23.81.34,1.25.34.2,0,.41-.03.61-.08.36-.09.7-.19,1.05-.3,7.52-1.95,13.84-6.7,17.8-13.38,3.97-6.71,5.09-14.56,3.15-22.1Z"/>
          <path class="cls-3" d="m44.61,5.46h0c15.31,0,27.74,12.43,27.74,27.74h0c-15.31,0-27.74-12.43-27.74-27.74h0Z" transform="translate(62.68 -42.12) rotate(75.61)"/>
          <path class="cls-4" d="m46.09,17.24h0c9.46,0,17.15,7.68,17.15,17.15h0c-9.46,0-17.15-7.68-17.15-17.15h0Z" transform="translate(66.09 -33.55) rotate(75.61)"/>
        </g>
      </g>
      <g>
        <path class="cls-1" d="m683.49,49.86v.37c0,.92-.32,1.82-.92,2.52-.12.14-.23.27-.35.41-.17.2-.34.39-.44.53-7.55,10.21-15.88,17.98-25.45,23.75-6.6,3.99-13.11,6.32-19.89,7.14-1.61.19-3.24.29-4.85.29-5.94,0-11.99-1.34-17.99-3.98-8.82-3.88-16.86-9.83-24.59-18.17-1.98-2.14-3.78-4.4-5.53-6.59-.74-.93-1.5-1.88-2.26-2.8-.26-.32-.46-.62-.63-.88-.06-.1-.14-.21-.23-.34-.98-1.44-.89-3.35.21-4.7.68-.83,1.38-1.7,2.05-2.54,1.53-1.91,3.11-3.88,4.8-5.78,6.79-7.65,13.88-13.44,21.68-17.68,7.63-4.15,14.99-6.17,22.5-6.17.3,0,.6,0,.9,0,6.65.14,13.12,1.84,19.79,5.2,8.46,4.26,16.18,10.38,23.59,18.72,1.54,1.73,2.96,3.55,4.32,5.31.6.78,1.23,1.58,1.85,2.35.02.02.04.03.05.05.08.08.16.16.24.24.72.74,1.13,1.73,1.13,2.76Z"/>
        <g>
          <path class="cls-2" d="m679.57,50.24c-.31.37-.65.73-.94,1.12-6.71,9.07-14.61,16.87-24.32,22.72-5.66,3.42-11.72,5.8-18.33,6.6-7.25.87-14.16-.47-20.79-3.39-9.06-3.99-16.62-10.05-23.29-17.25-2.71-2.92-5.1-6.13-7.63-9.22-.19-.24-.35-.51-.64-.94,2.23-2.73,4.4-5.55,6.75-8.2,5.96-6.72,12.7-12.52,20.62-16.84,6.68-3.64,13.75-5.85,21.44-5.68,6.41.14,12.41,1.91,18.1,4.78,8.71,4.38,15.99,10.59,22.42,17.82,2.15,2.42,4.07,5.05,6.1,7.57.15.19.33.34.5.51v.37Zm-47.89-22.65c-12.36-.02-22.47,10.03-22.51,22.38-.04,12.4,10.03,22.54,22.43,22.56,12.36.02,22.46-10.03,22.51-22.38.04-12.4-10.03-22.53-22.43-22.55Z"/>
          <g>
            <path class="cls-3" d="m631.6,29.58h0c-11.05,11.04-11.3,28.79-.75,40.14-6.22-7.02-5.96-17.76.76-24.48,6.54,6.54,6.95,16.88,1.24,23.9,10.01-11.36,9.6-28.7-1.25-39.56Z"/>
            <path class="cls-4" d="m631.58,70.5h0c-.25-.25-.49-.51-.74-.77.24.27.49.54.75.8h0c.45-.45.86-.91,1.25-1.39-.41.46-.83.92-1.27,1.36h0Z"/>
            <path class="cls-4" d="m631.61,45.24c-6.72,6.72-6.98,17.46-.76,24.48.24.26.48.52.74.77h0c.44-.44.86-.9,1.27-1.36,5.71-7.02,5.29-17.36-1.24-23.9Z"/>
          </g>
        </g>
      </g>
      <g>
        <polygon class="cls-1" points="373.88 28.09 355.36 28.09 355.1 32.94 361.05 34.55 350.78 59.83 339.38 34.55 344.74 32.94 344.48 28.09 319.16 28.09 318.9 32.77 323.41 34.55 343.8 78.23 348.99 78.23 369.81 34.55 374.31 32.77 373.88 28.09"/>
        <path class="cls-1" d="m394.24,68.8c-.08-1.7-.13-3.26-.13-4.67v-10.88c0-2.32.04-4.45.13-6.37.08-1.93.21-3.85.38-5.78l-2.97-1.53-17.68,4.33v4.42l5.61,1.19c.28,1.7.47,3.06.55,4.08.09,1.02.13,2.32.13,3.91l-.08,6.29c0,.91-.03,1.95-.08,3.14-.06,1.19-.11,2.27-.17,3.23-.06.96-.11,1.59-.17,1.87l-5.52,1.36.25,4.59h25.24l.25-4.59-5.52-1.36c-.06-.45-.13-1.53-.21-3.23Z"/>
        <path class="cls-1" d="m387.31,34.47c2.89,0,5.06-.84,6.5-2.51,1.44-1.67,2.17-3.55,2.17-5.65s-.72-4.05-2.17-5.69c-1.45-1.64-3.61-2.46-6.5-2.46s-5.09.82-6.59,2.46c-1.5,1.64-2.25,3.54-2.25,5.69s.75,3.98,2.25,5.65c1.5,1.67,3.7,2.51,6.59,2.51Z"/>
        <path class="cls-1" d="m425.55,54.27c-3.29-1.25-5.54-2.28-6.76-3.1-1.22-.82-1.83-1.8-1.83-2.93s.47-2,1.4-2.59c.93-.59,2.14-.89,3.61-.89.62,0,1.36.09,2.21.25.85.17,1.56.45,2.12.85l1.78,6.12h6.37l-1.1-10.54c-1.25-.57-2.88-1.05-4.89-1.45-2.01-.4-4.01-.59-5.99-.59-3.63,0-6.84.54-9.65,1.61-2.8,1.08-4.99,2.58-6.54,4.5-1.56,1.93-2.34,4.16-2.34,6.71,0,2.83.84,5.21,2.51,7.14,1.67,1.93,4.6,3.63,8.8,5.1,3,1.08,4.98,1.98,5.95,2.72.96.74,1.44,1.67,1.44,2.8,0,.91-.37,1.63-1.1,2.17-.74.54-1.9.81-3.48.81-2.15,0-4.39-.6-6.71-1.78l-1.78-6.12h-6.37l.42,10.54c1.7.91,3.78,1.64,6.25,2.21,2.46.57,4.97.85,7.52.85,5.61,0,10.11-1.16,13.51-3.48,3.4-2.32,5.1-5.44,5.1-9.35,0-2.66-.81-4.9-2.42-6.71-1.61-1.81-4.29-3.43-8.03-4.84Z"/>
        <path class="cls-1" d="m451.3,34.47c2.89,0,5.06-.84,6.5-2.51,1.44-1.67,2.17-3.55,2.17-5.65s-.72-4.05-2.17-5.69c-1.45-1.64-3.61-2.46-6.5-2.46s-5.09.82-6.59,2.46c-1.5,1.64-2.25,3.54-2.25,5.69s.75,3.98,2.25,5.65c1.5,1.67,3.7,2.51,6.59,2.51Z"/>
        <path class="cls-1" d="m458.23,68.8c-.08-1.7-.13-3.26-.13-4.67v-10.88c0-2.32.04-4.45.13-6.37.08-1.93.21-3.85.38-5.78l-2.97-1.53-17.68,4.33v4.42l5.61,1.19c.28,1.7.47,3.06.55,4.08.09,1.02.13,2.32.13,3.91l-.08,6.29c0,.91-.03,1.95-.08,3.14-.06,1.19-.11,2.27-.17,3.23-.06.96-.11,1.59-.17,1.87l-5.52,1.36.25,4.59h25.24l.25-4.59-5.52-1.36c-.06-.45-.13-1.53-.21-3.23Z"/>
        <path class="cls-1" d="m499.27,41.86c-3.03-1.64-6.5-2.46-10.41-2.46-3.63,0-7.08.76-10.37,2.29-3.29,1.53-5.96,3.8-8.03,6.8-2.07,3-3.1,6.71-3.1,11.13,0,3.68.91,6.97,2.72,9.86,1.81,2.89,4.3,5.14,7.48,6.76,3.17,1.61,6.8,2.42,10.88,2.42,3.79,0,7.24-.89,10.33-2.68,3.09-1.78,5.55-4.19,7.39-7.22,1.84-3.03,2.76-6.44,2.76-10.24s-.85-7.04-2.55-9.9c-1.7-2.86-4.07-5.11-7.1-6.76Zm-5.57,25.79c-.34,1.56-.86,2.72-1.57,3.48-.71.76-1.63,1.15-2.76,1.15-1.36,0-2.58-.71-3.65-2.12-1.08-1.42-1.93-3.33-2.55-5.74-.62-2.41-.93-5.08-.93-8.03,0-3.45.44-6.16,1.32-8.12.88-1.95,2.11-2.93,3.7-2.93,2.1,0,3.78,1.53,5.06,4.59,1.27,3.06,1.91,7.05,1.91,11.98,0,2.27-.17,4.18-.51,5.74Z"/>
        <path class="cls-1" d="m557.95,72.03c-.11-.45-.2-1.51-.25-3.19-.06-1.67-.09-3.41-.09-5.23v-8.58c0-3.17-.55-5.93-1.66-8.29-1.1-2.35-2.63-4.16-4.59-5.44-1.95-1.27-4.24-1.91-6.84-1.91-2.44,0-4.77.61-7.01,1.83-2.24,1.22-4.18,3.05-5.82,5.48l-.25-.08.51-5.52-2.89-1.53-17.08,4.33v4.42l5.44,1.19c.28,1.7.47,3.03.55,3.99.08.96.13,2.27.13,3.91l-.08,6.37c0,.91-.03,1.95-.09,3.14-.06,1.19-.11,2.27-.17,3.23-.06.96-.11,1.59-.17,1.87l-5.27,1.53.25,4.42h24.3l.25-4.42-4.93-1.53c-.06-.45-.13-1.51-.21-3.19-.08-1.67-.13-3.24-.13-4.72v-12.32c.79-.96,1.7-1.67,2.72-2.12,1.02-.45,2.07-.68,3.14-.68,1.25,0,2.32.28,3.23.85.91.57,1.63,1.47,2.17,2.72.54,1.25.81,2.86.81,4.84v5.86c0,.68-.01,1.59-.04,2.72-.03,1.13-.07,2.24-.13,3.31-.06,1.08-.14,1.98-.25,2.72l-4.59,1.53.25,4.42h23.79l.25-4.42-5.27-1.53Z"/>
      </g>
    </g>
  </g>
</svg>