<?xml version="1.0" encoding="UTF-8"?>
<svg id="Capa_2" data-name="Capa 2" xmlns="http://www.w3.org/2000/svg" xmlns:xlink="http://www.w3.org/1999/xlink" viewBox="0 0 620.71 93.37">
  <defs>
    <style>
      .cls-1 {
        fill: #e1edd5;
      }

      .cls-2 {
        fill: url(#Degradado_sin_nombre_2);
      }

      .cls-3 {
        fill: #32523a;
      }

      .cls-4 {
        fill: #74b74a;
      }
    </style>
    <linearGradient id="Degradado_sin_nombre_2" data-name="Degradado sin nombre 2" x1="525.2" y1="89.48" x2="615.05" y2="11.15" gradientUnits="userSpaceOnUse">
      <stop offset="0" stop-color="#74b74a"/>
      <stop offset=".51" stop-color="#32523a"/>
      <stop offset="1" stop-color="#19291d"/>
    </linearGradient>
  </defs>
  <g id="Capa_1-2" data-name="Capa 1">
    <g>
      <g>
        <g>
          <g>
            <path class="cls-1" d="m31.39,57.21c-1.92-1.19-3.97-2.22-6.15-3.1s-4.24-1.76-6.19-2.66c-1.95-.9-3.55-1.98-4.8-3.23-1.25-1.25-1.87-2.8-1.87-4.66,0-2.21.78-3.91,2.35-5.1,1.57-1.19,3.54-1.79,5.93-1.79s4.39.47,6.19,1.4l2.79,8.54,5.49-.35-.96-12.73c-1.1-.52-2.38-.96-3.84-1.31-1.45-.35-2.95-.62-4.49-.83-1.54-.2-2.98-.3-4.32-.3-4.24,0-7.98.67-11.2,2.01-3.23,1.34-5.73,3.2-7.5,5.58-1.77,2.38-2.66,5.12-2.66,8.2,0,2.91.61,5.3,1.83,7.19,1.22,1.89,2.77,3.43,4.66,4.62,1.89,1.19,3.91,2.19,6.06,3.01,2.15.81,4.18,1.67,6.1,2.57,1.92.9,3.49,1.96,4.71,3.18,1.22,1.22,1.83,2.85,1.83,4.88,0,1.86-.7,3.34-2.09,4.45-1.39,1.11-3.4,1.66-6.02,1.66-1.45,0-2.98-.2-4.58-.61-1.6-.41-2.98-1.02-4.14-1.83l-2.96-8.98-5.58.35.44,12.9c2.09,1.16,4.61,2.09,7.54,2.79,2.93.7,5.65,1.05,8.15,1.05,4.36,0,8.18-.67,11.46-2.01,3.28-1.34,5.83-3.18,7.63-5.54,1.8-2.35,2.7-5.01,2.7-7.98,0-2.79-.61-5.09-1.83-6.89-1.22-1.8-2.79-3.3-4.71-4.49Z"/>
            <path class="cls-1" d="m59.07,74.61c-.09-1.74-.13-3.57-.13-5.49v-11.07c0-2.38.04-4.52.13-6.41.09-1.89.22-3.76.39-5.62l-2.35-1.48-16.04,3.92v3.92l5.84,1.22c.29,1.45.49,2.88.61,4.27.12,1.4.17,2.94.17,4.62l-.09,6.63c0,1.4-.03,2.73-.09,4.01-.06,1.28-.13,2.33-.22,3.14-.09.81-.16,1.37-.22,1.66l-5.75,1.22.26,4.18h23.37l.26-4.18-5.75-1.22c-.17-.46-.31-1.57-.39-3.31Z"/>
            <path class="cls-1" d="m98.04,74.56c-1.6.73-3.42,1.09-5.45,1.09-3.66,0-6.58-1.25-8.76-3.75-1.91-2.19-2.98-4.98-3.22-8.37h24.36v-2.09c0-5.06-1.4-9.17-4.18-12.34-2.79-3.17-6.74-4.75-11.86-4.75-3.43-.06-6.64.78-9.63,2.53-2.99,1.74-5.41,4.14-7.24,7.19-1.83,3.05-2.75,6.61-2.75,10.68,0,3.66.81,6.95,2.44,9.85,1.63,2.91,3.91,5.2,6.84,6.89,2.93,1.69,6.29,2.53,10.07,2.53s6.89-.9,9.85-2.7c2.96-1.8,5.26-4.45,6.89-7.93l-2.62-2.53c-1.57,1.74-3.15,2.98-4.75,3.71Zm-16.48-20.49c.67-1.66,1.6-2.89,2.79-3.71,1.19-.81,2.48-1.22,3.88-1.22,2.15,0,3.82.8,5.01,2.4,1.19,1.6,1.79,3.79,1.79,6.58v.87h-14.43c.1-1.92.41-3.57.96-4.93Z"/>
            <path class="cls-1" d="m176.55,74.56c-.06-1.71-.09-3.56-.09-5.54l-.17-8.98c0-3.31-.58-6.13-1.74-8.46-1.16-2.32-2.81-4.11-4.93-5.36-2.12-1.25-4.55-1.87-7.28-1.87s-5.27.71-7.63,2.14c-1.83,1.11-3.57,2.65-5.24,4.61-1.21-2.24-2.78-3.93-4.69-5.04-1.95-1.13-4.08-1.7-6.41-1.7-2.15,0-4.24.54-6.28,1.61-2.04,1.08-3.95,2.8-5.75,5.19l-.26-.09.44-5.06-2.35-1.48-15.34,3.92v3.92l5.58,1.22c.17.99.32,1.96.44,2.92.12.96.19,1.92.22,2.88.03.96.07,1.99.13,3.1l-.09,6.63c0,1.4-.03,2.72-.09,3.97-.06,1.25-.13,2.3-.22,3.14-.09.84-.16,1.41-.22,1.7l-5.4,1.4.35,4.01h21.88l.26-4.01-4.88-1.4c-.12-.46-.22-1.57-.31-3.31-.09-1.74-.13-3.57-.13-5.49v-12.9c.87-1.22,1.96-2.15,3.27-2.79,1.31-.64,2.6-.96,3.88-.96s2.35.26,3.4.78c1.05.52,1.87,1.41,2.48,2.66.61,1.25.92,2.92.92,5.01l.09,8.2c0,1.05-.02,2.15-.04,3.31-.03,1.16-.07,2.22-.13,3.18-.06.96-.15,1.73-.26,2.31l-4.53,1.4.26,4.01h20.75l.26-4.01-4.8-1.4c-.12-.52-.2-1.64-.26-3.36-.06-1.71-.09-3.56-.09-5.54l-.17-9.07c0-1.54-.12-2.95-.35-4.26.84-.97,1.81-1.74,2.92-2.28,1.31-.64,2.66-.96,4.05-.96s2.54.29,3.62.87c1.07.58,1.95,1.57,2.62,2.96.67,1.4,1,3.2,1,5.41l.17,7.41c0,1.05-.03,2.15-.09,3.31-.06,1.16-.1,2.22-.13,3.18-.03.96-.1,1.73-.22,2.31l-4.53,1.4.26,4.01h21.36l.26-4.01-5.41-1.4c-.17-.52-.29-1.64-.35-3.36Z"/>
            <path class="cls-1" d="m220.66,46.49c-2.44-1.42-5.12-2.14-8.02-2.14-2.38,0-4.64.65-6.76,1.96-2.12,1.31-3.82,2.83-5.1,4.58l-.26-.09c.17-4.59.29-8.43.35-11.51.06-3.08.13-5.8.22-8.15.09-2.35.22-4.72.39-7.11l-2.44-1.48-16.39,4.27.17,3.75,6.45.78c0,.58.01,1.5.04,2.75.03,1.25.06,2.73.09,4.45.03,1.71.06,3.68.09,5.88.03,2.21.04,4.68.04,7.41v16.87c0,2.12-.02,4.18-.04,6.19-.03,2.01-.1,3.97-.22,5.88,2.62,1.05,5.25,1.85,7.89,2.4,2.64.55,5.33.83,8.06.83,4.88,0,9.11-.99,12.69-2.96,3.57-1.98,6.3-4.62,8.19-7.93,1.89-3.31,2.83-6.97,2.83-10.99,0-3.72-.77-6.9-2.31-9.55-1.54-2.64-3.53-4.68-5.97-6.1Zm-6.5,27.99c-1.77,2-4,3.01-6.67,3.01-1.22,0-2.43-.2-3.62-.61-1.19-.41-2.22-.93-3.1-1.57v-19.7c.87-.93,1.89-1.66,3.05-2.18,1.16-.52,2.38-.78,3.66-.78,2.5,0,4.69.95,6.58,2.83,1.89,1.89,2.83,4.98,2.83,9.29-.06,4.48-.97,7.72-2.75,9.72Z"/>
            <path class="cls-1" d="m264.78,45.92c-1.16-.87-2.53-1.31-4.1-1.31-1.86,0-3.65.58-5.36,1.74-1.72,1.16-3.39,3.4-5.01,6.71l-.26-.09.35-7.06-2.35-1.4-15.08,3.92v3.92l5.58,1.22c.29,1.51.49,2.95.61,4.32.12,1.37.17,2.89.17,4.58l-.09,6.63c0,1.4-.04,2.72-.13,3.97-.09,1.25-.16,2.3-.22,3.14-.06.84-.12,1.41-.17,1.7l-5.41,1.4.26,4.01h24.85l.26-4.18-7.58-1.31c-.06-.41-.12-1.16-.17-2.27-.06-1.1-.1-2.51-.13-4.23-.03-1.71-.07-3.65-.13-5.8l-.09-6.89c.64-1.22,1.35-2.34,2.14-3.36.43-.56.89-1.06,1.37-1.51.83.66,1.61,1.16,2.34,1.46,1.1.47,2.35.7,3.75.7,1.69,0,3.17-.52,4.45-1.57,1.28-1.05,1.92-2.5,1.92-4.36s-.58-3.23-1.74-4.1Z"/>
            <path class="cls-1" d="m304.88,75.48c-.29-.52-.48-1.23-.57-2.14-.09-.9-.13-2.19-.13-3.88l.26-12.12c0-4.01-1.53-7.18-4.58-9.5-3.05-2.32-7.16-3.49-12.34-3.49-1.34.12-2.91.54-4.71,1.26-1.8.73-3.57,1.6-5.32,2.62-1.74,1.02-3.18,2.11-4.32,3.27-1.13,1.16-1.7,2.3-1.7,3.4,0,1.8.93,3.1,2.79,3.88,1.86.78,4.21.89,7.06.3l.44-5.32c.12-1.22.36-2.08.74-2.57.38-.49,1.03-.74,1.96-.74,1.45,0,2.83.35,4.14,1.05,1.31.7,2.34,1.6,3.1,2.7.75,1.11,1.13,2.27,1.13,3.49v3.14l-13.69,4.1c-2.73.76-4.75,1.85-6.06,3.27-1.31,1.43-1.96,3.18-1.96,5.27,0,1.45.51,2.99,1.53,4.62,1.02,1.63,2.49,3.02,4.4,4.18s4.24,1.74,6.97,1.74c1.74,0,3.56-.64,5.45-1.92,1.48-1,2.94-2.31,4.37-3.88l.91,2.31c.87,2.33,2.44,3.49,4.71,3.49.81,0,1.67-.12,2.57-.35.9-.23,1.87-.55,2.92-.96l5.58-2.44v-3.75l-5.67-1.05Zm-11.94-1.31c-.64.76-1.35,1.28-2.14,1.57-.78.29-1.58.44-2.4.44-1.4,0-2.65-.54-3.75-1.61-1.11-1.07-1.66-2.28-1.66-3.62,0-1.16.32-2.09.96-2.79.64-.7,1.66-1.13,3.05-1.31l5.93-1.13v8.46Z"/>
          </g>
          <g>
            <path class="cls-1" d="m71.1,7.01l-.25-.99c-.16-.63-.57-1.17-1.13-1.5-.38-.23-.81-.34-1.25-.34-.2,0-.41.03-.61.08l-.99.25c-7.55,1.94-13.89,6.7-17.86,13.4-3.97,6.71-5.09,14.56-3.15,22.1l.17.66c.03.12.05.24.08.36.16.63.57,1.17,1.13,1.5.38.23.81.34,1.25.34.2,0,.41-.03.61-.08.36-.09.7-.19,1.05-.3,7.52-1.95,13.84-6.7,17.8-13.38,3.97-6.71,5.09-14.56,3.15-22.1Z"/>
            <path class="cls-3" d="m44.61,9.64h0c15.31,0,27.74,12.43,27.74,27.74h0c-15.31,0-27.74-12.43-27.74-27.74h0Z" transform="translate(66.72 -38.98) rotate(75.61)"/>
            <path class="cls-4" d="m46.09,21.41h0c9.46,0,17.15,7.68,17.15,17.15h0c-9.46,0-17.15-7.68-17.15-17.15h0Z" transform="translate(70.13 -30.41) rotate(75.61)"/>
          </g>
        </g>
        <g>
          <path class="cls-1" d="m372.67,65.14l-5.12,10.24c-.41.12-1.16.25-2.25.4-1.09.15-2.13.22-3.13.22h-1.76c-1.65,0-3.06-.03-4.24-.09-1.18-.06-2.32-.18-3.44-.35-.18-.88-.3-2.29-.35-4.24-.06-1.94-.09-4.79-.09-8.56v-10.59c0-2.18.03-4.28.09-6.31.06-2.03.15-3.73.26-5.12.12-1.38.21-2.16.26-2.34l7.32-1.59-.26-5.21h-28.59l-.26,5.03,5.74,1.59c.12.29.22,1.16.31,2.6.09,1.44.16,3.18.22,5.21.06,2.03.09,4.07.09,6.13v10.59c0,1.94-.03,3.93-.09,5.96-.06,2.03-.13,3.79-.22,5.29-.09,1.5-.19,2.4-.31,2.69l-5.74,1.68.26,5.03h25.77c1.06,0,2.59.01,4.59.04,2,.03,4.13.1,6.4.22,2.26.12,4.31.26,6.13.44l4.76-17.38-6.35-1.59Z"/>
          <path class="cls-1" d="m391.5,38.23c3,0,5.25-.87,6.75-2.6,1.5-1.73,2.25-3.69,2.25-5.87s-.75-4.2-2.25-5.91c-1.5-1.71-3.75-2.56-6.75-2.56s-5.28.85-6.84,2.56c-1.56,1.71-2.34,3.68-2.34,5.91s.78,4.13,2.34,5.87c1.56,1.74,3.84,2.6,6.84,2.6Z"/>
          <path class="cls-1" d="m505.92,78.28c-.35-.23-.87-.76-1.54-1.59-.68-.82-1.69-2.06-3.04-3.71l-11.98-14.67,10.83-8.54,5.82-1.06-.26-4.68h-20.91l-.26,4.68,5.82.97-13.15,12.44-1.12.18.06-12.89c0-4,.01-7.34.04-10.01.03-2.68.06-4.93.09-6.75.03-1.82.09-3.45.18-4.9.09-1.44.19-2.9.31-4.37l-2.91-1.76-19.32,4.85.18,4.5,6.53.88c.06,1.24.12,2.57.18,4.01.06,1.44.1,3,.13,4.68.03,1.68.06,3.43.09,5.25.03,1.82.04,3.77.04,5.82v10.32c0,1.41-.03,3.1-.09,5.07-.06,1.97-.12,3.88-.18,5.74-.06,1.85-.15,3.34-.26,4.46l-4.75,1.5-5.17-1.5c-.12-.47-.21-1.57-.26-3.31-.06-1.73-.09-3.54-.09-5.43v-8.91c0-3.29-.57-6.16-1.72-8.6-1.15-2.44-2.74-4.32-4.76-5.65-2.03-1.32-4.4-1.99-7.1-1.99-2.53,0-4.96.63-7.28,1.9-2.32,1.27-4.34,3.16-6.04,5.69l-.26-.09.53-5.74-3-1.59-17.74,4.5v4.59l5.65,1.24c.29,1.76.49,3.15.57,4.15.09,1,.13,2.35.13,4.06l-.09,6.62c0,.94-.03,2.03-.09,3.26-.06,1.24-.12,2.35-.18,3.35-.06,1-.12,1.65-.18,1.94l-4.79,1.39-5.65-1.39c-.06-.47-.13-1.59-.22-3.35s-.13-3.38-.13-4.85v-11.29c0-2.41.04-4.62.13-6.62.09-2,.22-4,.4-6l-3.09-1.59-18.35,4.5v4.59l5.82,1.24c.29,1.76.49,3.18.57,4.24s.13,2.41.13,4.06l-.09,6.53c0,.94-.03,2.03-.09,3.26-.06,1.24-.12,2.35-.18,3.35-.06,1-.12,1.65-.18,1.94l-5.74,1.41.26,4.76h51.21l.26-4.59-5.12-1.59c-.06-.47-.13-1.57-.22-3.31-.09-1.73-.13-3.37-.13-4.9v-12.79c.82-1,1.76-1.73,2.82-2.21,1.06-.47,2.15-.71,3.27-.71,1.29,0,2.41.29,3.35.88.94.59,1.69,1.53,2.25,2.82.56,1.29.84,2.97.84,5.03v6.09c0,.71-.02,1.65-.04,2.82-.03,1.18-.07,2.32-.13,3.44-.06,1.12-.15,2.06-.26,2.82l-4.76,1.59.26,4.59h49.71l.26-4.59-5.47-1.59c-.06-.47-.1-1.24-.13-2.29-.03-1.06-.04-2.21-.04-3.44v-4.94h.88l8.82,10.5c.88,1.06,1.69,2.12,2.43,3.18.73,1.06,1.46,2.12,2.16,3.18h18l.35-4.5-2.82-.62Z"/>
        </g>
      </g>
      <g>
        <path class="cls-1" d="m620.57,24.54c-.57-6.43-3.51-12.48-8.28-17.03-4.77-4.55-10.96-7.21-17.42-7.48-.04,0-.08,0-.12,0-.11,0-.21,0-.32,0-.19,0-.38-.01-.56-.01-.34,0-.66.02-.95.06-2.21.29-3.78,2-3.9,4.25-.12,2.21,1.23,4.08,3.35,4.64.03,0,.05.01.07.02-2.27.57-3.36,2.39-3.43,4.2-.07,1.82.89,3.99,3.69,4.63-6.76,1.49-12.79,5.21-17.12,10.54-3.51-2.83-6.88-5.09-10.26-6.88-1.99-1.06-4.68-2.31-7.89-2.61-.28-.03-.56-.04-.84-.04-3.22,0-5.82,1.72-6.89,4.36-.35.86-1,1.56-1.77,2.08-.3.2-.57.46-.8.76-7.17,9.7-8.68,25.47-.48,37.99-.08.08-.15.16-.22.24l-.02.02c-.1.11-.28.31-.46.57l-5.38,7.55c-3.19,4.47-6.37,8.95-9.56,13.42-1.55,2.17-1.12,4-.49,5.16.6,1.1,1.86,2.41,4.44,2.41h0c7.15,0,14.3,0,21.45,0h17.42c2.14,0,3.65-.83,4.49-2.48.59-1.15.96-2.98-.59-5.15l-.13-.18c-1.4-1.97-2.84-3.98-4.26-6,.7.04,1.4.07,2.11.07h0c7.06,0,14.1-2.21,19.3-6.05.34-.25.61-.55.83-.9.46-.73,1.17-1.26,1.97-1.59,2.6-1.09,4.34-3.62,4.36-6.72.01-2.18-.51-4.35-1.64-6.83-2-4.4-4.74-8.59-8.83-13.51.35-.3.7-.61,1.04-.93.36-.34.71-.68,1.05-1.04,4.93-5.09,7.89-11.57,8.5-18.53.45,1.07.72,2.26.78,3.53.13,2.72,2.05,4.69,4.56,4.69.06,0,.13,0,.19,0,2.08-.08,3.66-1.42,4.2-3.37.56,1.99,2.27,3.37,4.37,3.37.04,0,.07,0,.11,0,2.59-.06,4.52-2.15,4.48-4.87-.01-.81-.08-1.6-.14-2.33Z"/>
        <g>
          <path class="cls-3" d="m598.47,64.35c-.01,2.37-1.71,4.07-4.08,4.04-2.9-.03-5.45-1.19-7.88-2.58-5.8-3.3-11.03-7.39-15.81-12.03-5.47-5.31-10.55-10.95-14.61-17.44-1.64-2.62-3.13-5.33-3.7-8.42-.15-.79-.18-1.63-.1-2.43.22-2.25,2.17-3.63,4.67-3.4,2.4.22,4.57,1.13,6.66,2.24,3.74,1.99,7.17,4.42,10.41,7.09-1,1.55-1.87,3.21-2.58,4.96-1.39,3.41-2.13,7.02-2.2,10.72,0,.08,0,.16,0,.24,0,.21,0,.42,0,.61v.18c0,.68.28,1.34.77,1.81.48.47,1.13.73,1.8.73h.04c.31,0,.61-.02.92-.03.09,0,.18-.02.27-.02.21-.02.42-.03.62-.05.11,0,.22-.02.33-.03.09,0,.19-.02.28-.03.12-.01.24-.03.36-.04.09,0,.19-.02.28-.03.12-.01.24-.03.36-.05.09-.01.18-.02.28-.03.12-.02.24-.04.35-.05.09-.01.19-.03.28-.04.12-.02.23-.04.35-.06.1-.02.19-.03.28-.05.12-.02.23-.04.35-.07.09-.02.19-.03.28-.05.12-.02.24-.05.35-.08.09-.02.18-.04.27-.06.12-.03.24-.06.36-.08.09-.02.18-.04.26-.06.12-.03.25-.07.37-.1.08-.02.17-.04.25-.07.13-.03.25-.07.38-.11.08-.02.16-.04.24-.07.13-.04.26-.08.39-.12.07-.02.14-.04.21-.07.14-.04.27-.09.41-.14.07-.02.13-.04.2-.07.14-.05.29-.1.43-.15.06-.02.11-.04.17-.06.16-.06.33-.12.49-.18.03-.01.07-.03.11-.04.17-.07.33-.14.5-.2.03-.01.06-.03.09-.04.2-.08.39-.17.59-.25,1.65-.73,3.22-1.61,4.7-2.62,3.5,4.14,6.65,8.46,8.9,13.41.78,1.73,1.36,3.53,1.35,5.47Z"/>
          <path class="cls-2" d="m592.21,70.8c-2.73-.57-5.28-1.6-7.67-3.03-9.58-5.74-17.64-13.22-24.71-21.79-4.45-5.4-8.61-11.01-10.24-18.04-2.39,3.23-4.1,7.27-4.89,11.66-1.66,9.11.6,19.74,8.76,27.77,9.52,9.39,22.35,10.66,32.12,7.24,2.61-.91,5-2.16,7.05-3.68-.17-.05-.3-.11-.43-.14Z"/>
          <path class="cls-3" d="m548.76,66.34c1.65,1.62,3.21,3.32,4.94,4.81,3.94,3.4,8.5,5.67,13.57,6.85.7.16,1.17.48,1.58,1.08,1.99,2.87,4.02,5.71,6.05,8.55.39.55.68,1.1.34,1.77-.33.65-.95.69-1.58.69-12.96,0-25.91,0-38.87,0-.64,0-1.23-.09-1.57-.71-.35-.64-.09-1.16.29-1.69,4.98-6.99,9.96-13.98,14.94-20.97.12-.16.26-.31.31-.38Z"/>
          <path class="cls-3" d="m594.58,3.29c11.72.5,21.55,9.87,22.59,21.53.06.69.12,1.39.13,2.09.01.93-.51,1.54-1.28,1.56-.77.02-1.31-.57-1.33-1.51-.09-4.14-1.16-8-3.49-11.44-4.07-6.01-9.74-9.24-17.02-9.62-.38-.02-.76-.02-1.12-.12-.65-.17-.96-.64-.92-1.3.04-.67.4-1.1,1.06-1.18.46-.06.93-.01,1.39,0Z"/>
          <path class="cls-3" d="m593.94,12.05c7.33.2,13.71,6.08,14.47,13.19.06.52.12,1.04.14,1.56.03,1-.47,1.63-1.27,1.67-.8.03-1.31-.56-1.36-1.58-.27-5.69-3.83-10.28-9.17-11.75-.94-.26-1.94-.37-2.92-.45-1.16-.09-1.75-.52-1.72-1.4.03-.85.6-1.25,1.74-1.24.09,0,.17,0,.07,0Z"/>
        </g>
        <g>
          <path class="cls-1" d="m591.02,39.78c-2.42,2.5-5.31,4.53-8.54,5.97-2.8,1.24-5.85,2.03-9.05,2.26-.53.06-1.08.09-1.62.1,0-.25,0-.49,0-.73,0-.07,0-.14,0-.21.06-3.47.77-6.78,2.01-9.82,4.01-9.84,13.6-16.84,24.9-17.01.11,7.54-2.84,14.41-7.7,19.43Z"/>
          <path class="cls-3" d="m591.02,39.78c-2.42,2.5-5.31,4.53-8.54,5.97-2.8,1.24-5.85,2.03-9.05,2.26-.53.04-1.07.06-1.62.07,0-.24,0-.47,0-.7,0-.07,0-.14,0-.21.06-3.47.77-6.78,2.01-9.82,4.01-9.84,13.6-16.84,24.9-17.01.11,7.54-2.84,14.41-7.7,19.43Z"/>
          <path class="cls-4" d="m583.68,42.98c-.66.68-1.37,1.3-2.13,1.86-2.32,1.71-5.1,2.84-8.12,3.17-.53.06-1.08.09-1.62.1,0-.25,0-.49,0-.73,0-.07,0-.14,0-.21.13-3.29,1.21-6.34,2.97-8.89,3-4.34,7.98-7.22,13.66-7.31.07,4.66-1.76,8.91-4.76,12.01Z"/>
        </g>
      </g>
    </g>
  </g>
</svg>