<?xml version="1.0" encoding="UTF-8"?>
<svg id="Capa_2" data-name="Capa 2" xmlns="http://www.w3.org/2000/svg" viewBox="0 0 429.04 98.27">
  <defs>
    <style>
      .cls-1 {
        fill: #e1edd5;
      }

      .cls-2 {
        fill: #32523a;
      }

      .cls-3 {
        fill: #74b74a;
      }
    </style>
  </defs>
  <g id="Capa_1-2" data-name="Capa 1">
    <g>
      <g>
        <path class="cls-1" d="m33.3,56.28c-2.04-1.26-4.21-2.36-6.52-3.28s-4.5-1.86-6.57-2.82c-2.07-.96-3.76-2.1-5.09-3.42-1.33-1.33-1.99-2.97-1.99-4.95,0-2.34.83-4.15,2.5-5.41,1.66-1.26,3.76-1.9,6.29-1.9s4.66.49,6.57,1.48l2.96,9.07,5.83-.37-1.02-13.51c-1.17-.56-2.53-1.02-4.07-1.39-1.54-.37-3.13-.66-4.76-.88-1.63-.22-3.16-.32-4.58-.32-4.5,0-8.46.71-11.89,2.13-3.42,1.42-6.08,3.39-7.96,5.92-1.88,2.53-2.82,5.43-2.82,8.7,0,3.08.65,5.63,1.94,7.63,1.3,2,2.94,3.64,4.95,4.9,2,1.26,4.15,2.33,6.43,3.19,2.28.86,4.44,1.77,6.47,2.73,2.04.96,3.7,2.08,5,3.38,1.3,1.3,1.94,3.02,1.94,5.18,0,1.97-.74,3.55-2.22,4.72-1.48,1.17-3.61,1.76-6.38,1.76-1.54,0-3.16-.22-4.86-.65-1.7-.43-3.16-1.08-4.39-1.94l-3.15-9.53-5.92.37.46,13.69c2.22,1.23,4.89,2.22,8,2.96,3.11.74,6,1.11,8.65,1.11,4.63,0,8.68-.71,12.16-2.13,3.48-1.42,6.18-3.38,8.09-5.87,1.91-2.5,2.87-5.32,2.87-8.46,0-2.96-.65-5.4-1.94-7.31-1.3-1.91-2.96-3.5-5-4.76Z"/>
        <path class="cls-1" d="m62.67,74.73c-.09-1.85-.14-3.79-.14-5.83v-11.75c0-2.53.05-4.79.14-6.8.09-2,.23-3.99.42-5.97l-2.5-1.57-17.02,4.16v4.16l6.2,1.3c.31,1.54.52,3.05.65,4.53.12,1.48.19,3.12.19,4.9l-.09,7.03c0,1.48-.03,2.9-.09,4.26-.06,1.36-.14,2.47-.23,3.33-.09.86-.17,1.45-.23,1.76l-6.11,1.3.28,4.44h24.79l.28-4.44-6.11-1.3c-.19-.49-.32-1.66-.42-3.52Z"/>
        <path class="cls-1" d="m104.02,74.69c-1.7.77-3.62,1.16-5.78,1.16-3.89,0-6.98-1.33-9.3-3.98-2.02-2.32-3.16-5.28-3.42-8.88h25.85v-2.22c0-5.37-1.48-9.73-4.44-13.09-2.96-3.36-7.15-5.04-12.58-5.04-3.64-.06-7.05.83-10.22,2.68-3.18,1.85-5.74,4.39-7.68,7.63-1.94,3.24-2.91,7.02-2.91,11.33,0,3.89.86,7.37,2.59,10.45,1.73,3.08,4.15,5.52,7.26,7.31,3.11,1.79,6.68,2.68,10.68,2.68s7.31-.96,10.45-2.87c3.15-1.91,5.58-4.72,7.31-8.42l-2.78-2.68c-1.66,1.85-3.35,3.16-5.04,3.93Zm-17.48-21.74c.71-1.76,1.7-3.07,2.96-3.93,1.26-.86,2.64-1.29,4.12-1.29,2.28,0,4.05.85,5.32,2.54,1.26,1.7,1.9,4.02,1.9,6.98v.93h-15.31c.11-2.04.43-3.79,1.02-5.23Z"/>
        <path class="cls-1" d="m187.32,74.69c-.06-1.82-.09-3.78-.09-5.87l-.18-9.53c0-3.52-.62-6.51-1.85-8.97-1.23-2.47-2.98-4.36-5.23-5.69-2.25-1.33-4.83-1.99-7.72-1.99s-5.6.76-8.09,2.27c-1.94,1.17-3.79,2.81-5.56,4.89-1.29-2.38-2.95-4.17-4.98-5.35-2.07-1.2-4.33-1.8-6.8-1.8-2.28,0-4.5.57-6.66,1.71-2.16,1.14-4.19,2.98-6.1,5.5l-.28-.09.46-5.37-2.5-1.57-16.28,4.16v4.16l5.92,1.3c.18,1.05.34,2.08.46,3.1.12,1.02.2,2.04.23,3.05.03,1.02.08,2.11.14,3.28l-.09,7.03c0,1.48-.03,2.88-.09,4.21-.06,1.33-.14,2.44-.23,3.33-.09.89-.17,1.5-.23,1.8l-5.73,1.48.37,4.26h23.22l.28-4.26-5.18-1.48c-.12-.49-.23-1.66-.32-3.52-.09-1.85-.14-3.79-.14-5.83v-13.69c.92-1.29,2.08-2.28,3.47-2.96,1.39-.68,2.76-1.02,4.12-1.02s2.5.28,3.61.83c1.11.56,1.99,1.5,2.64,2.82.65,1.33.97,3.1.97,5.32l.09,8.7c0,1.11-.02,2.28-.05,3.52-.03,1.23-.08,2.36-.14,3.38-.06,1.02-.16,1.84-.28,2.45l-4.81,1.48.28,4.26h22.02l.28-4.26-5.09-1.48c-.12-.55-.22-1.74-.28-3.56-.06-1.82-.09-3.78-.09-5.87l-.19-9.62c0-1.63-.13-3.13-.37-4.52.89-1.03,1.92-1.84,3.1-2.42,1.39-.68,2.82-1.02,4.3-1.02s2.7.31,3.84.93c1.14.62,2.07,1.66,2.78,3.15.71,1.48,1.06,3.39,1.06,5.74l.19,7.86c0,1.11-.03,2.28-.09,3.52-.06,1.23-.11,2.36-.14,3.38-.03,1.02-.11,1.84-.23,2.45l-4.81,1.48.28,4.26h22.66l.28-4.26-5.74-1.48c-.18-.55-.31-1.74-.37-3.56Z"/>
        <path class="cls-1" d="m234.13,44.9c-2.59-1.51-5.43-2.27-8.51-2.27-2.53,0-4.92.69-7.17,2.08-2.25,1.39-4.06,3.01-5.41,4.86l-.28-.09c.19-4.87.31-8.94.37-12.21.06-3.27.14-6.15.23-8.65.09-2.5.23-5.01.42-7.54l-2.59-1.57-17.39,4.53.19,3.98,6.84.83c0,.62.02,1.59.05,2.91.03,1.33.06,2.9.09,4.72.03,1.82.06,3.9.09,6.24.03,2.34.05,4.96.05,7.86v17.9c0,2.25-.02,4.44-.05,6.57-.03,2.13-.11,4.21-.23,6.24,2.78,1.11,5.57,1.96,8.37,2.54,2.81.59,5.66.88,8.56.88,5.18,0,9.67-1.05,13.46-3.15,3.79-2.1,6.69-4.9,8.7-8.42,2-3.52,3.01-7.4,3.01-11.66,0-3.95-.82-7.32-2.45-10.13-1.63-2.81-3.75-4.96-6.34-6.48Zm-6.89,29.69c-1.88,2.13-4.24,3.19-7.08,3.19-1.29,0-2.58-.22-3.84-.65-1.26-.43-2.36-.99-3.28-1.67v-20.91c.92-.99,2-1.76,3.24-2.31,1.23-.56,2.53-.83,3.89-.83,2.65,0,4.98,1,6.99,3.01,2,2,3.01,5.29,3.01,9.85-.06,4.75-1.03,8.19-2.91,10.31Z"/>
        <path class="cls-1" d="m280.94,44.3c-1.23-.93-2.68-1.39-4.35-1.39-1.97,0-3.87.62-5.69,1.85-1.82,1.23-3.59,3.61-5.32,7.12l-.28-.09.37-7.49-2.5-1.48-16,4.16v4.16l5.92,1.3c.31,1.6.52,3.13.65,4.58.12,1.45.18,3.07.18,4.86l-.09,7.03c0,1.48-.05,2.88-.14,4.21-.09,1.33-.17,2.44-.23,3.33-.06.89-.12,1.5-.18,1.8l-5.74,1.48.28,4.26h26.36l.28-4.44-8.05-1.39c-.06-.43-.12-1.23-.19-2.41-.06-1.17-.11-2.67-.14-4.49-.03-1.82-.08-3.87-.14-6.15l-.09-7.31c.68-1.3,1.43-2.48,2.27-3.56.46-.6.95-1.12,1.45-1.6.88.7,1.71,1.23,2.48,1.55,1.17.49,2.5.74,3.98.74,1.79,0,3.36-.56,4.72-1.67,1.36-1.11,2.03-2.65,2.03-4.62s-.62-3.42-1.85-4.35Z"/>
        <path class="cls-1" d="m323.49,75.66c-.31-.56-.51-1.31-.6-2.27-.09-.96-.14-2.33-.14-4.12l.28-12.86c0-4.26-1.62-7.62-4.86-10.08-3.24-2.47-7.6-3.7-13.09-3.7-1.42.12-3.08.57-4.99,1.34-1.91.77-3.79,1.7-5.64,2.78-1.85,1.08-3.38,2.24-4.58,3.47-1.2,1.23-1.8,2.44-1.8,3.61,0,1.91.99,3.28,2.96,4.12,1.97.83,4.47.94,7.49.32l.46-5.64c.12-1.3.38-2.2.79-2.73.4-.52,1.09-.79,2.08-.79,1.54,0,3.01.37,4.39,1.11,1.39.74,2.48,1.7,3.28,2.87.8,1.17,1.2,2.41,1.2,3.7v3.33l-14.52,4.35c-2.9.8-5.04,1.96-6.43,3.47-1.39,1.51-2.08,3.38-2.08,5.6,0,1.54.54,3.18,1.62,4.9,1.08,1.73,2.64,3.21,4.67,4.44s4.5,1.85,7.4,1.85c1.85,0,3.78-.68,5.78-2.04,1.57-1.06,3.12-2.45,4.64-4.12l.96,2.46c.93,2.47,2.59,3.7,5,3.7.86,0,1.77-.12,2.73-.37.96-.25,1.99-.59,3.1-1.02l5.92-2.59v-3.98l-6.01-1.11Zm-12.67-1.39c-.68.8-1.43,1.36-2.27,1.66-.83.31-1.68.46-2.54.46-1.48,0-2.81-.57-3.98-1.71-1.17-1.14-1.76-2.42-1.76-3.84,0-1.23.34-2.22,1.02-2.96.68-.74,1.76-1.2,3.24-1.39l6.29-1.2v8.97Z"/>
      </g>
      <g>
        <path class="cls-1" d="m75.44,3.01l-.27-1.05c-.17-.67-.6-1.24-1.19-1.59-.41-.24-.86-.36-1.33-.36-.22,0-.43.03-.65.08l-1.05.27c-8.01,2.05-14.74,7.1-18.95,14.22-4.21,7.12-5.4,15.45-3.34,23.45l.18.7c.03.13.05.25.09.38.17.67.6,1.24,1.2,1.59.4.24.86.36,1.32.36.22,0,.43-.03.65-.08.38-.1.75-.2,1.11-.32,7.98-2.06,14.69-7.1,18.89-14.2,4.21-7.12,5.4-15.44,3.34-23.45Z"/>
        <path class="cls-2" d="m47.34,5.8h0c16.25,0,29.44,13.19,29.44,29.44h0c-16.25,0-29.44-13.19-29.44-29.44h0Z" transform="translate(66.51 -44.69) rotate(75.61)"/>
        <path class="cls-3" d="m48.91,18.29h0c10.04,0,18.19,8.15,18.19,18.19h0c-10.04,0-18.19-8.15-18.19-18.19h0Z" transform="translate(70.12 -35.6) rotate(75.61)"/>
      </g>
      <g>
        <path class="cls-1" d="m428.48,50.27l-.86-1.09c-6.48-8.22-15.15-12.74-24.42-12.74-1.94,0-3.85.21-5.72.6.39-1.87.6-3.78.6-5.72,0-9.27-4.52-17.94-12.74-24.42l-1.09-.86c-.47-.37-1.04-.56-1.61-.56s-1.14.19-1.61.56l-1.08.86c-8.22,6.48-12.74,15.15-12.74,24.42,0,1.94.21,3.85.6,5.72-1.87-.39-3.78-.6-5.72-.6-9.27,0-17.94,4.52-24.42,12.74l-.86,1.09c-.75.94-.74,2.28,0,3.22l.86,1.08c6.48,8.22,15.15,12.74,24.42,12.74,1.94,0,3.85-.21,5.72-.6-.39,1.87-.6,3.78-.6,5.72,0,9.27,4.52,17.94,12.74,24.42l1.08.86c.47.37,1.04.56,1.61.56s1.14-.19,1.61-.56l1.09-.86c8.22-6.48,12.74-15.15,12.74-24.42,0-1.94-.21-3.85-.6-5.72,1.87.39,3.78.6,5.72.6,9.27,0,17.94-4.52,24.42-12.74l.86-1.08c.74-.94.75-2.28,0-3.22Z"/>
        <g>
          <path class="cls-2" d="m425.58,50.8c-8.65-10.97-21.07-14.26-31.98-9.86,4.39-10.91,1.11-23.33-9.86-31.98l-1.08-.86-1.08.86c-10.97,8.65-14.26,21.07-9.86,31.98-10.91-4.39-23.33-1.11-31.98,9.86l-.86,1.08.86,1.08c8.65,10.97,21.07,14.26,31.98,9.86-4.39,10.91-1.11,23.33,9.86,31.98l1.08.86,1.08-.86c10.97-8.65,14.26-21.07,9.86-31.98,10.91,4.39,23.33,1.11,31.98-9.86l.86-1.08-.86-1.08Z"/>
          <path class="cls-3" d="m407.66,51.88c-4.86-6.16-11.57-8.54-17.87-7.15,1.39-6.29-.99-13.01-7.15-17.87h0s0,0,0,0c-6.16,4.86-8.54,11.57-7.15,17.87-6.29-1.39-13.01.99-17.87,7.15h0c4.86,6.16,11.57,8.54,17.87,7.15-1.39,6.29.99,13.01,7.15,17.87h0c6.16-4.86,8.54-11.57,7.15-17.87,6.29,1.39,13.01-.99,17.87-7.15h0Z"/>
        </g>
      </g>
    </g>
  </g>
</svg>