<?xml version="1.0" encoding="UTF-8"?>
<svg id="Capa_2" data-name="Capa 2" xmlns="http://www.w3.org/2000/svg" viewBox="0 0 124.02 159.51">
  <defs>
    <style>
      .cls-1 {
        fill: #18529e;
      }

      .cls-2 {
        fill: #e1eed6;
      }

      .cls-3 {
        fill: #2fab58;
      }
    </style>
  </defs>
  <g id="Capa_1-2" data-name="Capa 1">
    <g>
      <g>
        <path class="cls-2" d="m83.25,83.09c3.82,4.25,7.01,7.74,9.2,10.14.22.24.52.37.84.37.11,0,.22-.02.32-.05.42-.12.73-.47.8-.9,3.73-22.74,1.66-45.63-5.98-66.19-3.29-8.84-7.63-17.36-12.9-25.32-.21-.33-.57-.51-.95-.51-.14,0-.28.02-.41.08-.5.19-.79.71-.71,1.23,1.28,8.14,1.13,16.35-.46,24.38-1.31,6.63-3.58,13.02-6.75,19.01-.08.14-.12.3-.13.46-.51,8.71,1.06,16.26,4.67,22.46,1.09,1.87,2.14,3.37,12.45,14.84Z"/>
        <path class="cls-2" d="m81.86,7.1s.04.06.06.09c3.38,5.93,6.28,12.15,8.64,18.48,1.77,4.75,3.26,9.7,4.43,14.69.12.51.58.88,1.1.88.01,0,.03,0,.04,0,.54-.02.99-.42,1.08-.96.58-3.68.9-7.46.95-11.23.06-4.15-.2-8.35-.79-12.49-.03-.22-.13-.43-.27-.59-2.04-2.3-4.16-4.53-6.29-6.61-3.25-3.18-6.75-6.25-10.38-9.12-.21-.16-.46-.24-.7-.24-.27,0-.54.1-.75.29-.41.36-.5.97-.21,1.44,1.07,1.74,2.11,3.55,3.1,5.37Z"/>
        <path class="cls-2" d="m97.43,53.48c-.02.1-.02.21,0,.31.76,6.48,1.11,13.04,1.03,19.49-.1,7.97-.81,14.61-2.13,19.74-.43,1.67-.85,3.02-1.14,3.9-.11.34-.05.72.16,1.02.21.29.55.47.92.47.28,0,.58-.12.78-.31,14.25-12.7,17.82-31.36,18.31-44.78l.2-5.68s0-.07,0-.11c-.09-1.45-.22-2.78-.34-4-.01-.12-.04-.23-.09-.34-1.36-3.11-2.91-6.23-4.63-9.27-2.39-4.22-5.15-8.34-8.2-12.25-.22-.28-.55-.44-.89-.44-.14,0-.27.02-.4.07-.47.18-.76.64-.73,1.13.15,2.2.21,4.43.18,6.63-.06,3.85-.39,7.74-.99,11.55l-2.02,12.84Z"/>
        <path class="cls-2" d="m119.8,53.04c-.17-.45-.6-.73-1.06-.73-.06,0-.12,0-.19.02-.53.09-.93.54-.95,1.08-.5,13.86-4.21,33.15-19.06,46.39-2.02,1.8-4.22,3.45-6.53,4.91-.16.1-.3.25-.39.42-1.13,2.07-2.5,4-4.06,5.75-1.47,1.64-3.12,3.14-4.91,4.44-.39.28-.56.79-.42,1.25s.56.78,1.04.8c.53.02,1.1.03,1.71.03,6.3,0,15.49-1.26,23.48-7.25,15.17-11.38,19.83-34.86,11.33-57.11Z"/>
        <path class="cls-2" d="m86.34,108.75c2.74-3.24,4.84-6.98,6.25-11.13.04-.12.06-.25.06-.37,0-.28-.11-.56-.3-.77l-1.57-1.71c-2.5-2.73-5.78-6.34-9.21-10.16-10-11.1-11.43-12.98-12.72-15.2-2.43-4.16-4.01-8.94-4.69-14.18-.06-.49-.43-.88-.91-.97-.07-.01-.14-.02-.21-.02-.41,0-.79.22-.99.59-2.6,4.72-4.7,9.68-6.25,14.76-2.25,7.33-4.57,14.92-2.94,22.53,3.13,14.67,19.21,21.98,24.06,23.87.13.05.27.08.41.08.2,0,.4-.05.58-.16,3.18-1.89,6.01-4.29,8.44-7.15Z"/>
        <path class="cls-2" d="m47.34,99.27c-.22-.26-.54-.41-.87-.41-.08,0-.15,0-.23.02l-12.53,2.56c-.41.08-.74.39-.86.8l-.17.58c-.04-.09-.09-.18-.15-.26l-7.54-9.53c-.22-.27-.55-.43-.89-.43-.05,0-.11,0-.16.01l-.83.12c.18-.13.32-.31.4-.52l4.66-12.54c.15-.39.06-.83-.21-1.14l-8.77-9.94c-.22-.25-.53-.38-.85-.38-.07,0-.14,0-.21.02l-13.3,2.47c-.41.08-.75.38-.88.78L.05,84.01c-.13.41-.01.85.29,1.15l9.54,9.34c.06.06.15.1.22.14-.25.12-.45.32-.56.58l-5,12.17c-.16.4-.09.85.19,1.18l9.11,10.45c.22.25.53.39.85.39.08,0,.15,0,.23-.02l13.23-2.74c.24-.05.45-.18.61-.36l-.06.2c-.1.35-.03.73.2,1.02l7.12,8.97c.22.27.55.43.89.43.08,0,.16,0,.24-.02l13.39-2.85c.38-.08.7-.36.83-.73l4.56-12.82c.13-.38.06-.8-.2-1.1l-8.4-10.11Z"/>
      </g>
      <g>
        <path class="cls-3" d="m74.59,1.76c.9,5.71,1.57,14.46-.47,24.78-1.63,8.23-4.45,14.77-6.86,19.33-.64,10.96,2.21,17.86,4.52,21.82,1.06,1.82,2.3,3.52,12.31,14.65,3.82,4.25,7,7.74,9.2,10.13,2.27-13.85,4.18-38.44-5.92-65.61-3.72-10.02-8.33-18.38-12.78-25.09Z"/>
        <path class="cls-1" d="m97.03,29.03c-.06,4.12-.43,7.83-.94,11.07-1.18-5.05-2.67-10-4.47-14.83-2.39-6.43-5.32-12.69-8.74-18.69-.01-.01-.01-.02-.02-.03-1.05-1.93-2.1-3.74-3.13-5.42,3.29,2.6,6.76,5.59,10.29,9.04,2.27,2.22,4.34,4.42,6.23,6.55.5,3.52.85,7.66.78,12.31Z"/>
        <path class="cls-1" d="m114.42,47.6l-.2,5.68c-.48,13.19-3.97,31.53-17.93,43.97-.01.01-.02.02-.03.02.33-1.01.75-2.36,1.16-3.97.61-2.37,2.03-8.42,2.17-20.01.06-5.12-.12-11.8-1.04-19.64l2.02-12.84c.6-3.84.94-7.78,1-11.71.03-2.23-.03-4.48-.18-6.72,2.68,3.43,5.47,7.45,8.11,12.11,1.81,3.2,3.32,6.27,4.58,9.16.12,1.16.25,2.48.34,3.95Z"/>
        <path class="cls-1" d="m92.63,105.66c2.27-1.43,4.52-3.1,6.68-5.02,16.79-14.97,19.08-37.39,19.44-47.2,8.5,22.24,3.5,44.96-10.95,55.8-8.82,6.62-19.01,7.18-24.46,6.99,1.5-1.09,3.3-2.59,5.09-4.6,1.92-2.16,3.27-4.26,4.21-5.97Z"/>
        <path class="cls-3" d="m91.52,97.24h0c-.95,2.81-2.7,6.82-6.04,10.77-2.88,3.4-5.93,5.59-8.15,6.91-2.82-1.1-20.18-8.15-23.36-23.05-1.57-7.33.7-14.73,2.92-21.98,1.84-6.03,4.17-10.93,6.15-14.53.7,5.41,2.31,10.29,4.83,14.61,1.33,2.28,2.78,4.2,12.86,15.39,3.83,4.26,7.02,7.77,9.22,10.17l1.57,1.71Z"/>
        <polygon class="cls-1" points="33.94 102.56 29.81 116.81 36.93 125.78 50.31 122.93 54.87 110.11 46.47 100 33.94 102.56"/>
        <path class="cls-3" d="m14.71,118.28c4.41-.91,8.82-1.83,13.23-2.74,1.23-4.09,2.47-8.18,3.7-12.27-2.51-3.18-5.03-6.35-7.54-9.53-4.5.64-9,1.28-13.5,1.92-1.67,4.06-3.33,8.12-5,12.17,3.04,3.48,6.08,6.97,9.11,10.45Z"/>
        <path class="cls-1" d="m5.04,71.81l-3.91,12.54c3.18,3.11,6.36,6.23,9.54,9.34,3.93-.62,7.85-1.25,11.78-1.87l4.66-12.54-8.77-9.94-13.3,2.47Z"/>
        <g>
          <path class="cls-2" d="m23.44,129.81h-2.55v1.81h2.55v.84h-2.55v3.04h-.94v-6.54h3.49v.84Z"/>
          <path class="cls-2" d="m27.79,135.26c-.39.26-.56.34-.82.34-.37,0-.57-.13-.65-.44-.37.3-.77.44-1.16.44-.63,0-1.05-.5-1.05-1.05,0-.85.78-1.11,1.47-1.36l.76-.27v-.23c0-.54-.26-.76-.78-.76-.47,0-.95.22-1.36.71v-.93c.34-.39.81-.58,1.43-.58.87,0,1.56.44,1.56,1.42v2.21c0,.16.06.22.16.22.09,0,.26-.09.45-.23v.52Zm-1.47-1.88c-.73.25-1.36.5-1.36,1.01,0,.35.26.6.61.6.27,0,.52-.13.75-.36v-1.26Z"/>
          <path class="cls-2" d="m31.55,132.32c-.24-.15-.64-.41-1.2-.41-.89,0-1.31.76-1.31,1.44,0,.72.42,1.44,1.48,1.44.45,0,.82-.14,1.13-.29v.84c-.19.07-.64.25-1.26.25-1.49,0-2.21-1.04-2.21-2.21,0-1.04.59-2.26,2.13-2.26.56,0,.91.15,1.25.3v.91Z"/>
          <path class="cls-2" d="m35.43,135.5v-.55c-.39.43-.9.63-1.3.63-.27,0-.86-.1-1.22-.69-.13-.21-.24-.46-.24-1.25v-2.45h.86v2.45c0,.49,0,1.23.87,1.23.4,0,.77-.24,1.03-.6v-3.08h.86v4.3h-.86Z"/>
          <path class="cls-2" d="m38.46,135.5h-.85v-6.54h.85v6.54Z"/>
          <path class="cls-2" d="m40.78,131.2h1.36v.77h-1.36v1.88c0,.54.02.63.15.79.16.17.37.18.46.18.17,0,.5-.02.97-.31v.8c-.4.22-.85.29-1.1.29-.3,0-.82-.12-1.12-.55-.21-.32-.21-.78-.21-1.17v-1.91h-.75v-.09l1.6-1.57v.89Z"/>
          <path class="cls-2" d="m46.77,135.26c-.39.26-.56.34-.82.34-.37,0-.57-.13-.65-.44-.37.3-.77.44-1.16.44-.63,0-1.05-.5-1.05-1.05,0-.85.78-1.11,1.47-1.36l.76-.27v-.23c0-.54-.26-.76-.78-.76-.47,0-.95.22-1.36.71v-.93c.34-.39.81-.58,1.43-.58.87,0,1.56.44,1.56,1.42v2.21c0,.16.06.22.16.22.09,0,.26-.09.45-.23v.52Zm-1.47-1.88c-.73.25-1.36.5-1.36,1.01,0,.35.26.6.61.6.27,0,.52-.13.75-.36v-1.26Z"/>
          <path class="cls-2" d="m51.13,135.5h-1.82c-1.69,0-2.09-1.39-2.09-2.22,0-1.4,1.04-2.17,2.12-2.17.43,0,.76.11.93.17v-2.32h.86v6.54Zm-.86-3.46c-.16-.09-.39-.2-.8-.2-.72,0-1.39.46-1.39,1.54,0,.73.31,1.1.63,1.27.23.11.45.13.9.13h.65v-2.74Z"/>
          <path class="cls-2" d="m58.87,135.5h-1.82c-1.69,0-2.09-1.39-2.09-2.22,0-1.4,1.04-2.17,2.12-2.17.43,0,.76.11.93.17v-2.32h.86v6.54Zm-.86-3.46c-.16-.09-.39-.2-.8-.2-.72,0-1.39.46-1.39,1.54,0,.73.31,1.1.63,1.27.23.11.45.13.9.13h.65v-2.74Z"/>
          <path class="cls-2" d="m63.72,135.08c-.3.19-.79.51-1.69.51-.45,0-.97-.07-1.49-.6-.57-.58-.64-1.25-.64-1.66,0-1.34.84-2.21,2.01-2.21,1.01,0,1.69.72,1.83,1.67.05.29.05.48.05.64h-3.03c.03.64.45,1.35,1.39,1.35.56,0,1.1-.19,1.56-.53v.83Zm-.77-2.17c-.01-.17-.08-1.06-1.05-1.06-.27,0-.59.11-.82.36-.23.25-.27.51-.3.7h2.17Z"/>
          <path class="cls-2" d="m73.26,130.42c-.69-.39-1.47-.65-2.26-.65-1.58,0-2.59,1.17-2.59,2.48,0,1.22.86,2.46,2.6,2.46.82,0,1.63-.28,2.32-.73v1.03c-.76.41-1.54.57-2.38.57-2.43,0-3.52-1.82-3.52-3.35,0-1.8,1.47-3.37,3.54-3.37,1.01,0,1.87.35,2.29.54v1.01Z"/>
          <path class="cls-2" d="m75.41,129.89c0,.27-.23.51-.51.51-.33,0-.5-.3-.5-.51,0-.24.21-.5.5-.5s.51.23.51.5Zm-.08,5.62h-.85v-4.3h.85v4.3Z"/>
          <path class="cls-2" d="m80.25,135.08c-.3.19-.79.51-1.69.51-.45,0-.97-.07-1.49-.6-.57-.58-.64-1.25-.64-1.66,0-1.34.84-2.21,2.01-2.21,1.01,0,1.69.72,1.83,1.67.05.29.05.48.05.64h-3.03c.03.64.45,1.35,1.39,1.35.56,0,1.1-.19,1.56-.53v.83Zm-.77-2.17c-.01-.17-.08-1.06-1.05-1.06-.27,0-.59.11-.82.36-.23.25-.27.51-.3.7h2.17Z"/>
          <path class="cls-2" d="m82.19,131.2v.55c.38-.43.89-.63,1.29-.63.27,0,.86.1,1.22.69.13.21.24.46.24,1.25v2.45h-.86v-2.45c0-.46,0-.7-.23-.96-.16-.18-.36-.27-.64-.27-.39,0-.76.23-1.02.6v3.08h-.87v-4.3h.87Z"/>
          <path class="cls-2" d="m89.36,132.32c-.24-.15-.64-.41-1.2-.41-.89,0-1.31.76-1.31,1.44,0,.72.42,1.44,1.48,1.44.45,0,.82-.14,1.13-.29v.84c-.19.07-.64.25-1.26.25-1.49,0-2.21-1.04-2.21-2.21,0-1.04.59-2.26,2.13-2.26.56,0,.91.15,1.25.3v.91Z"/>
          <path class="cls-2" d="m91.46,129.89c0,.27-.23.51-.51.51-.33,0-.5-.3-.5-.51,0-.24.21-.5.5-.5s.51.23.51.5Zm-.08,5.62h-.85v-4.3h.85v4.3Z"/>
          <path class="cls-2" d="m96.08,135.26c-.39.26-.56.34-.82.34-.37,0-.57-.13-.65-.44-.37.3-.77.44-1.16.44-.63,0-1.05-.5-1.05-1.05,0-.85.78-1.11,1.47-1.36l.76-.27v-.23c0-.54-.26-.76-.78-.76-.47,0-.95.22-1.36.71v-.93c.34-.39.81-.58,1.43-.58.87,0,1.56.44,1.56,1.42v2.21c0,.16.06.22.16.22.09,0,.26-.09.45-.23v.52Zm-1.47-1.88c-.73.25-1.36.5-1.36,1.01,0,.35.26.6.61.6.27,0,.52-.13.75-.36v-1.26Z"/>
          <path class="cls-2" d="m99.39,132.31c-.48-.3-.84-.46-1.25-.46s-.55.22-.55.38c0,.28.3.43.93.79.61.34,1.07.78,1.07,1.35,0,.4-.31,1.22-1.48,1.22-.6,0-1.01-.18-1.44-.39v-.92c.61.42,1.14.57,1.37.57.27,0,.65-.15.65-.44,0-.31-.26-.45-.66-.67-.71-.39-1.33-.78-1.33-1.5,0-.63.55-1.12,1.37-1.12.64,0,1.1.25,1.3.36v.84Z"/>
          <path class="cls-2" d="m7.89,140.47c.47,0,.79.03,1.09.14.62.23,1.1.75,1.1,1.55,0,.56-.25,1.06-1,1.38.96.18,1.56.84,1.56,1.68,0,1.06-.88,1.52-1.28,1.65-.38.13-.69.13-1.39.13h-1.81v-6.54h1.72Zm-.79.83v1.97h.62c.24,0,.65-.02.88-.15.18-.1.51-.35.51-.87,0-.36-.17-.68-.46-.81-.27-.12-.65-.12-.93-.12h-.62Zm0,2.81v2.06h.93c.27,0,.73,0,.97-.1.48-.18.68-.59.68-.94,0-.28-.13-.69-.62-.89-.25-.11-.57-.13-1.07-.13h-.88Z"/>
          <path class="cls-2" d="m12.49,141.39c0,.27-.23.51-.51.51-.33,0-.5-.3-.5-.51,0-.24.21-.5.5-.5s.51.23.51.5Zm-.08,5.62h-.85v-4.3h.85v4.3Z"/>
          <path class="cls-2" d="m18.08,144.87c0,1.53-1.25,2.22-2.31,2.22-1.38,0-2.29-1.02-2.29-2.24s.88-2.23,2.32-2.23c1.28,0,2.28.89,2.28,2.25Zm-3.73-.01c0,1.08.81,1.47,1.44,1.47.84,0,1.42-.6,1.42-1.48,0-1.08-.84-1.47-1.46-1.47-.77,0-1.4.53-1.4,1.48Z"/>
          <path class="cls-2" d="m20,147.01h-.85v-6.54h.85v6.54Z"/>
          <path class="cls-2" d="m25.67,144.87c0,1.53-1.25,2.22-2.31,2.22-1.38,0-2.29-1.02-2.29-2.24s.88-2.23,2.32-2.23c1.28,0,2.28.89,2.28,2.25Zm-3.73-.01c0,1.08.81,1.47,1.44,1.47.84,0,1.42-.6,1.42-1.48,0-1.08-.84-1.47-1.46-1.47-.77,0-1.4.53-1.4,1.48Zm1.34-2.7h-.53l.63-1.41h.95l-1.05,1.41Z"/>
          <path class="cls-2" d="m30.14,143.36h-.88c.34.34.45.58.45.94s-.2.77-.4.97c-.58.61-1.74.31-1.74.81,0,.24.45.38,1.31.56.92.18,1.25.65,1.25,1.2,0,.85-.76,1.37-2.03,1.37-1.16,0-1.98-.55-1.98-1.3,0-.63.34-1.01,1.08-1.19-.3-.18-.43-.35-.43-.55,0-.28.27-.52.68-.61v-.02c-.32-.13-.56-.32-.72-.55-.15-.22-.23-.49-.23-.81,0-.92.72-1.49,1.88-1.49h1.77v.66Zm-2.25,3.85c-.58,0-.98.27-.98.65,0,.43.42.66,1.2.66s1.19-.23,1.19-.62c0-.55-.88-.69-1.41-.69Zm.22-3.78c-.47,0-.85.36-.85.78,0,.47.35.79.86.79.48,0,.82-.34.82-.81,0-.41-.38-.76-.83-.76Z"/>
          <path class="cls-2" d="m31.85,141.39c0,.27-.23.51-.51.51-.33,0-.5-.3-.5-.51,0-.24.21-.5.5-.5s.51.23.51.5Zm-.08,5.62h-.85v-4.3h.85v4.3Z"/>
          <path class="cls-2" d="m36.23,143.82c-.24-.15-.64-.41-1.2-.41-.89,0-1.31.76-1.31,1.44,0,.72.42,1.44,1.48,1.44.45,0,.82-.14,1.13-.29v.84c-.19.07-.64.25-1.26.25-1.49,0-2.21-1.04-2.21-2.21,0-1.04.59-2.26,2.13-2.26.56,0,.91.15,1.25.3v.91Z"/>
          <path class="cls-2" d="m40.75,146.76c-.39.26-.56.34-.82.34-.37,0-.57-.13-.65-.44-.37.3-.77.44-1.16.44-.63,0-1.05-.5-1.05-1.05,0-.85.78-1.11,1.47-1.36l.76-.27v-.23c0-.54-.26-.76-.78-.76-.47,0-.95.22-1.36.71v-.93c.34-.39.81-.58,1.43-.58.87,0,1.56.44,1.56,1.42v2.21c0,.16.06.22.16.22.09,0,.26-.09.45-.23v.52Zm-1.47-1.88c-.73.25-1.36.5-1.36,1.01,0,.35.26.6.61.6.27,0,.52-.13.75-.36v-1.26Z"/>
          <path class="cls-2" d="m44.06,143.81c-.48-.3-.84-.46-1.25-.46s-.55.22-.55.38c0,.28.3.43.93.79.61.34,1.07.78,1.07,1.35,0,.4-.31,1.22-1.48,1.22-.6,0-1.01-.18-1.44-.39v-.92c.61.42,1.14.57,1.37.57.27,0,.65-.15.65-.44,0-.31-.26-.45-.66-.67-.71-.39-1.33-.78-1.33-1.5,0-.63.55-1.12,1.37-1.12.64,0,1.1.25,1.3.36v.84Z"/>
          <path class="cls-2" d="m48.66,149.21h-.95l1.47-3.13-1.67-3.38h.97l1.16,2.43,1.11-2.43h.96l-3.05,6.51Z"/>
          <path class="cls-2" d="m60.95,147.01h-.96l-.87-1.93h-2.78l-.82,1.93h-.96l2.81-6.58h.66l2.92,6.58Zm-2.21-2.77l-1.06-2.37-.98,2.37h2.03Z"/>
          <path class="cls-2" d="m65.08,143.36h-.88c.34.34.45.58.45.94s-.2.77-.4.97c-.58.61-1.74.31-1.74.81,0,.24.45.38,1.31.56.92.18,1.25.65,1.25,1.2,0,.85-.76,1.37-2.03,1.37-1.16,0-1.98-.55-1.98-1.3,0-.63.34-1.01,1.08-1.19-.3-.18-.43-.35-.43-.55,0-.28.27-.52.68-.61v-.02c-.32-.13-.56-.32-.72-.55-.15-.22-.23-.49-.23-.81,0-.92.72-1.49,1.88-1.49h1.77v.66Zm-2.25,3.85c-.58,0-.98.27-.98.65,0,.43.42.66,1.2.66s1.19-.23,1.19-.62c0-.55-.88-.69-1.41-.69Zm.22-3.78c-.47,0-.85.36-.85.78,0,.47.35.79.86.79.48,0,.82-.34.82-.81,0-.41-.38-.76-.83-.76Z"/>
          <path class="cls-2" d="m66.65,142.7v.99c.28-.43.68-1.07,1.28-1.07.12,0,.51.01,1.01.49l-.45.75c-.11-.11-.49-.42-.82-.42-.32,0-1.02.35-1.02,1.32v2.25h-.85v-4.3h.85Z"/>
          <path class="cls-2" d="m73.74,144.87c0,1.53-1.25,2.22-2.31,2.22-1.38,0-2.29-1.02-2.29-2.24s.88-2.23,2.32-2.23c1.28,0,2.28.89,2.28,2.25Zm-3.73-.01c0,1.08.81,1.47,1.44,1.47.84,0,1.42-.6,1.42-1.48,0-1.08-.84-1.47-1.46-1.47-.77,0-1.4.53-1.4,1.48Z"/>
          <path class="cls-2" d="m76.22,142.7s.95,0,1.53.36c.77.49.89,1.36.89,1.79,0,1.26-.85,2.23-2.14,2.23-.44,0-.71-.11-.91-.19v2.31h-.87v-6.51h1.5Zm-.62.8v2.65c.39.2.75.2.82.2.76,0,1.35-.57,1.35-1.49,0-1.36-1.15-1.36-1.57-1.36h-.6Z"/>
          <path class="cls-2" d="m83.27,146.59c-.3.19-.79.51-1.69.51-.45,0-.97-.07-1.49-.6-.57-.58-.64-1.25-.64-1.66,0-1.34.84-2.21,2.01-2.21,1.01,0,1.69.72,1.83,1.67.05.29.05.48.05.64h-3.03c.03.64.45,1.35,1.39,1.35.56,0,1.1-.19,1.56-.53v.83Zm-.77-2.17c-.01-.17-.08-1.06-1.05-1.06-.27,0-.59.11-.82.36-.23.25-.27.51-.3.7h2.17Z"/>
          <path class="cls-2" d="m87.49,143.82c-.24-.15-.64-.41-1.2-.41-.89,0-1.31.76-1.31,1.44,0,.72.42,1.44,1.48,1.44.45,0,.82-.14,1.13-.29v.84c-.19.07-.64.25-1.26.25-1.49,0-2.21-1.04-2.21-2.21,0-1.04.59-2.26,2.13-2.26.56,0,.91.15,1.25.3v.91Z"/>
          <path class="cls-2" d="m91.38,147.01v-.55c-.39.43-.9.63-1.3.63-.27,0-.86-.1-1.22-.69-.13-.21-.24-.46-.24-1.25v-2.45h.86v2.45c0,.49,0,1.23.87,1.23.4,0,.77-.24,1.03-.6v-3.08h.86v4.3h-.86Z"/>
          <path class="cls-2" d="m96.91,146.76c-.39.26-.56.34-.82.34-.37,0-.57-.13-.65-.44-.37.3-.77.44-1.16.44-.63,0-1.05-.5-1.05-1.05,0-.85.78-1.11,1.47-1.36l.76-.27v-.23c0-.54-.26-.76-.78-.76-.47,0-.95.22-1.36.71v-.93c.34-.39.81-.58,1.43-.58.87,0,1.56.44,1.56,1.42v2.21c0,.16.06.22.16.22.09,0,.26-.09.45-.23v.52Zm-1.47-1.88c-.73.25-1.36.5-1.36,1.01,0,.35.26.6.61.6.27,0,.52-.13.75-.36v-1.26Z"/>
          <path class="cls-2" d="m98.54,142.7v.99c.28-.43.68-1.07,1.28-1.07.12,0,.51.01,1.01.49l-.45.75c-.11-.11-.49-.42-.82-.42-.32,0-1.02.35-1.02,1.32v2.25h-.85v-4.3h.85Z"/>
          <path class="cls-2" d="m102.47,141.39c0,.27-.23.51-.51.51-.33,0-.5-.3-.5-.51,0-.24.21-.5.5-.5s.51.23.51.5Zm-.08,5.62h-.85v-4.3h.85v4.3Z"/>
          <path class="cls-2" d="m107.09,146.76c-.39.26-.56.34-.82.34-.37,0-.57-.13-.65-.44-.37.3-.77.44-1.16.44-.63,0-1.05-.5-1.05-1.05,0-.85.78-1.11,1.47-1.36l.76-.27v-.23c0-.54-.26-.76-.78-.76-.47,0-.95.22-1.36.71v-.93c.34-.39.81-.58,1.43-.58.87,0,1.56.44,1.56,1.42v2.21c0,.16.06.22.16.22.09,0,.26-.09.45-.23v.52Zm-1.47-1.88c-.73.25-1.36.5-1.36,1.01,0,.35.26.6.61.6.27,0,.52-.13.75-.36v-1.26Z"/>
          <path class="cls-2" d="m110.39,143.81c-.48-.3-.84-.46-1.25-.46s-.55.22-.55.38c0,.28.3.43.93.79.61.34,1.07.78,1.07,1.35,0,.4-.31,1.22-1.48,1.22-.6,0-1.01-.18-1.44-.39v-.92c.61.42,1.14.57,1.37.57.27,0,.65-.15.65-.44,0-.31-.26-.45-.66-.67-.71-.39-1.33-.78-1.33-1.5,0-.63.55-1.12,1.37-1.12.64,0,1.1.25,1.3.36v.84Z"/>
        </g>
        <g>
          <path class="cls-2" d="m25.69,153.7c.2,0,.47.02.74.14.46.2.68.63.68,1.07,0,.5-.25.88-.73,1.07.39.26.64.66.97,1.2.18.3.29.45.59.87h-.74c-.15-.21-.75-1.16-.89-1.34-.43-.55-.64-.55-.94-.55h-.17v1.89h-.62v-4.34h1.09Zm-.47.53v1.37h.24c.1,0,.43,0,.6-.06.29-.11.41-.39.41-.62,0-.25-.13-.48-.33-.58-.16-.08-.36-.1-.74-.1h-.19Z"/>
          <path class="cls-2" d="m30.51,157.76c-.2.13-.52.34-1.12.34-.3,0-.64-.04-.99-.4-.38-.39-.43-.83-.43-1.1,0-.89.56-1.47,1.34-1.47.67,0,1.12.48,1.22,1.11.03.19.03.32.03.43h-2.01c.02.43.3.9.92.9.37,0,.73-.13,1.04-.35v.55Zm-.51-1.44c0-.11-.05-.71-.69-.71-.18,0-.39.07-.55.24-.15.17-.18.34-.2.46h1.44Z"/>
          <path class="cls-2" d="m33.45,155.62h-.59c.22.22.3.38.3.62s-.13.51-.27.64c-.38.41-1.16.2-1.16.54,0,.16.3.25.87.37.61.12.83.43.83.8,0,.57-.5.91-1.35.91-.77,0-1.32-.36-1.32-.87,0-.42.22-.67.72-.79-.2-.12-.29-.24-.29-.36,0-.18.18-.34.45-.41h0c-.21-.1-.37-.22-.48-.38-.1-.15-.15-.32-.15-.53,0-.61.48-.99,1.25-.99h1.18v.44Zm-1.5,2.56c-.38,0-.65.18-.65.43,0,.29.28.44.8.44s.79-.15.79-.41c0-.36-.59-.46-.94-.46Zm.15-2.51c-.31,0-.57.24-.57.52,0,.31.23.52.57.52.32,0,.55-.22.55-.53,0-.27-.25-.5-.55-.5Z"/>
          <path class="cls-2" d="m34.52,154.31c0,.18-.15.34-.34.34-.22,0-.33-.2-.33-.34,0-.16.14-.33.33-.33s.34.15.34.33Zm-.05,3.73h-.57v-2.86h.57v2.86Z"/>
          <path class="cls-2" d="m38.17,156.62c0,1.02-.83,1.48-1.53,1.48-.92,0-1.52-.68-1.52-1.49s.59-1.48,1.54-1.48c.85,0,1.51.59,1.51,1.5Zm-2.48,0c0,.72.53.97.95.97.56,0,.94-.4.94-.98,0-.72-.56-.97-.97-.97-.51,0-.93.35-.93.98Zm.89-1.79h-.35l.42-.94h.63l-.7.94Z"/>
          <path class="cls-2" d="m39.36,155.18v.36c.25-.29.59-.42.86-.42.18,0,.57.06.81.46.09.14.16.31.16.83v1.63h-.57v-1.63c0-.31,0-.46-.15-.64-.11-.12-.24-.18-.43-.18-.26,0-.5.15-.67.4v2.04h-.58v-2.86h.58Z"/>
          <path class="cls-2" d="m47.52,154.67c-.46-.26-.97-.43-1.5-.43-1.05,0-1.72.78-1.72,1.65,0,.81.57,1.64,1.72,1.64.55,0,1.08-.18,1.54-.48v.68c-.5.27-1.02.38-1.58.38-1.61,0-2.34-1.21-2.34-2.22,0-1.2.97-2.23,2.35-2.23.67,0,1.24.24,1.52.36v.67Z"/>
          <path class="cls-2" d="m51.13,156.62c0,1.02-.83,1.48-1.53,1.48-.92,0-1.52-.68-1.52-1.49s.59-1.48,1.54-1.48c.85,0,1.51.59,1.51,1.5Zm-2.48,0c0,.72.53.97.95.97.56,0,.94-.4.94-.98,0-.72-.56-.97-.97-.97-.51,0-.93.35-.93.98Zm.89-1.79h-.35l.42-.94h.63l-.7.94Z"/>
          <path class="cls-2" d="m52.3,155.18v.66c.18-.29.45-.71.85-.71.08,0,.34,0,.67.32l-.3.5c-.07-.07-.32-.28-.55-.28-.21,0-.67.23-.67.88v1.5h-.57v-2.86h.57Z"/>
          <path class="cls-2" d="m56.53,158.04h-1.21c-1.12,0-1.39-.92-1.39-1.48,0-.93.69-1.44,1.41-1.44.29,0,.5.07.62.11v-1.54h.57v4.34Zm-.57-2.3c-.11-.06-.26-.13-.53-.13-.48,0-.92.31-.92,1.02,0,.48.2.73.42.84.15.08.3.09.6.09h.43v-1.82Z"/>
          <path class="cls-2" d="m60.19,156.62c0,1.02-.83,1.48-1.53,1.48-.92,0-1.52-.68-1.52-1.49s.59-1.48,1.54-1.48c.85,0,1.51.59,1.51,1.5Zm-2.48,0c0,.72.53.97.95.97.56,0,.94-.4.94-.98,0-.72-.56-.97-.97-.97-.51,0-.93.35-.93.98Z"/>
          <path class="cls-2" d="m61.36,155.39c.1-.07.36-.26.79-.26.76,0,1.23.66,1.23,1.46,0,1.01-.69,1.52-1.48,1.52-.36,0-.83-.09-1.11-.22v-4.18h.57v1.69Zm0,2.09c.23.07.5.09.6.09.34,0,.85-.24.85-.95,0-.64-.39-.96-.8-.96-.32,0-.53.18-.64.28v1.55Z"/>
          <path class="cls-2" d="m66.24,157.88c-.26.17-.37.22-.55.22-.25,0-.38-.09-.43-.29-.25.2-.51.29-.77.29-.42,0-.7-.33-.7-.7,0-.57.52-.74.97-.9l.5-.18v-.15c0-.36-.17-.5-.52-.5-.31,0-.63.15-.9.47v-.62c.22-.26.53-.39.95-.39.58,0,1.04.29,1.04.94v1.47c0,.11.04.15.11.15.06,0,.17-.06.3-.15v.34Zm-.97-1.25c-.48.17-.9.33-.9.67,0,.24.17.4.41.4.18,0,.34-.09.5-.24v-.83Z"/>
          <path class="cls-2" d="m69.88,156.94h-1.55v-.6h1.55v.6Z"/>
          <path class="cls-2" d="m76.86,155.87c0,1.25-.95,2.23-2.37,2.23s-2.29-1.01-2.29-2.21.84-2.24,2.32-2.24,2.34,1.06,2.34,2.22Zm-4.02.02c0,.99.78,1.64,1.69,1.64.46,0,.97-.19,1.27-.52.27-.3.43-.77.43-1.15,0-.72-.55-1.63-1.68-1.63-1.22,0-1.71.93-1.71,1.65Z"/>
          <path class="cls-2" d="m78.08,155.18v.66c.18-.29.45-.71.85-.71.08,0,.34,0,.67.32l-.3.5c-.07-.07-.32-.28-.55-.28-.21,0-.67.23-.67.88v1.5h-.57v-2.86h.57Z"/>
          <path class="cls-2" d="m80.63,154.31c0,.18-.15.34-.34.34-.22,0-.33-.2-.33-.34,0-.16.14-.33.33-.33s.34.15.34.33Zm-.05,3.73h-.57v-2.86h.57v2.86Z"/>
          <path class="cls-2" d="m82.05,157.52h1.51v.52h-2.51l1.5-2.33h-1.44v-.53h2.44l-1.51,2.34Z"/>
          <path class="cls-2" d="m86.28,157.88c-.26.17-.37.22-.55.22-.25,0-.38-.09-.43-.29-.25.2-.51.29-.77.29-.42,0-.7-.33-.7-.7,0-.57.52-.74.97-.9l.5-.18v-.15c0-.36-.17-.5-.52-.5-.31,0-.63.15-.9.47v-.62c.22-.26.53-.39.95-.39.58,0,1.04.29,1.04.94v1.47c0,.11.04.15.11.15.06,0,.17-.06.3-.15v.34Zm-.97-1.25c-.48.17-.9.33-.9.67,0,.24.17.4.41.4.18,0,.34-.09.5-.24v-.83Z"/>
          <path class="cls-2" d="m87.3,155.39c.1-.07.36-.26.79-.26.76,0,1.23.66,1.23,1.46,0,1.01-.69,1.52-1.48,1.52-.36,0-.83-.09-1.11-.22v-4.18h.57v1.69Zm0,2.09c.23.07.5.09.6.09.34,0,.85-.24.85-.95,0-.64-.39-.96-.8-.96-.32,0-.53.18-.64.28v1.55Z"/>
          <path class="cls-2" d="m92.18,157.88c-.26.17-.37.22-.55.22-.25,0-.38-.09-.43-.29-.25.2-.51.29-.77.29-.42,0-.7-.33-.7-.7,0-.57.52-.74.97-.9l.5-.18v-.15c0-.36-.17-.5-.52-.5-.31,0-.63.15-.9.47v-.62c.22-.26.53-.39.95-.39.58,0,1.04.29,1.04.94v1.47c0,.11.04.15.11.15.06,0,.17-.06.3-.15v.34Zm-.97-1.25c-.48.17-.9.33-.9.67,0,.24.17.4.41.4.18,0,.34-.09.5-.24v-.83Z"/>
        </g>
        <g>
          <path class="cls-2" d="m4.03,47.47l2.23.59-1.42,5.35,2.72.72,1.42-5.35,2.23.59-1.42,5.35,4.99,1.33-.81,3.03-12.17-3.23,2.23-8.38Z"/>
          <path class="cls-2" d="m21.22,34.27l2.3,1.51c-.16,1.77-.72,3.38-1.66,4.83-1.23,1.87-2.72,3.02-4.48,3.45-1.76.43-3.4.15-4.91-.84-1.51-.99-2.41-2.42-2.7-4.28-.29-1.86.18-3.73,1.42-5.62.98-1.5,2.13-2.57,3.43-3.21l2.35,1.54c-1.56.81-2.71,1.78-3.45,2.92-.73,1.12-1.03,2.23-.9,3.34.13,1.11.67,1.96,1.6,2.57.93.61,1.94.77,3,.46,1.07-.3,1.96-1,2.68-2.1.36-.54.63-1.11.81-1.71.19-.6.36-1.55.53-2.87Z"/>
          <path class="cls-2" d="m20.17,22.95l4.31-3.32c1.03-.79,2.03-1.17,3-1.13.97.04,1.71.4,2.23,1.08.67.87.72,1.88.17,3.04.82-.35,1.6-.43,2.31-.26s1.31.57,1.78,1.18c.67.87.91,1.8.74,2.8-.18,1-.84,1.95-2,2.84l-4.86,3.74-7.68-9.98Zm3.89-.09l1.64,2.14,1.3-1c.4-.31.63-.65.7-1.03.07-.38-.02-.72-.26-1.03-.23-.3-.54-.47-.92-.5-.38-.03-.77.11-1.17.42l-1.3,1Zm3.05,3.96l1.81,2.36,1.4-1.08c.66-.51,1.07-.97,1.22-1.37.15-.41.05-.84-.3-1.29-.27-.35-.62-.52-1.05-.51-.43.01-.88.19-1.34.55l-1.74,1.34Z"/>
          <path class="cls-2" d="m43.4,9.98l9.24,10.22-3.2,1.05-1.76-2.04-5.36,1.76-.12,2.66-3.16,1.04.9-13.55,3.45-1.13Zm2.72,7.43l-3.47-4.01-.23,5.23,3.7-1.21Z"/>
        </g>
      </g>
    </g>
  </g>
</svg>