<?xml version="1.0" encoding="UTF-8"?>
<svg id="Capa_2" data-name="Capa 2" xmlns="http://www.w3.org/2000/svg" xmlns:xlink="http://www.w3.org/1999/xlink" viewBox="0 0 567.32 102.16">
  <defs>
    <style>
      .cls-1 {
        fill: #e1edd5;
      }

      .cls-2 {
        fill: url(#Degradado_sin_nombre_2);
      }

      .cls-3 {
        clip-path: url(#clippath);
      }

      .cls-4 {
        fill: #32523a;
      }

      .cls-5 {
        fill: none;
      }

      .cls-6 {
        fill: #74b74a;
      }
    </style>
    <linearGradient id="Degradado_sin_nombre_2" data-name="Degradado sin nombre 2" x1="525.13" y1="115.39" x2="526.21" y2="-2.83" gradientUnits="userSpaceOnUse">
      <stop offset="0" stop-color="#74b74a"/>
      <stop offset=".51" stop-color="#32523a"/>
      <stop offset="1" stop-color="#19291d"/>
    </linearGradient>
    <clipPath id="clippath">
      <path class="cls-5" d="m541.51,30.53c-2.47,0-4.93,0-7.4,0-1.33,3.51-3.41,6.73-6.14,9.47-.22.25-.45.5-.69.74-.14.14-.29.25-.45.35-.35.2-.75.32-1.16.32-.6,0-1.18-.24-1.61-.66-.08-.08-.16-.16-.23-.25l-.45-.45c-2.75-2.75-4.83-5.98-6.16-9.51-2.47,0-4.93,0-7.4.01-.88,0-1.79.06-2.65.26-4.51,1.04-7.47,4.83-7.48,9.57-.01,10.35,0,20.7,0,31.05,0,6,4.11,10.11,10.14,10.11,10.57.01,21.13.01,31.69,0,6.03,0,10.13-4.12,10.13-10.12,0-10.26,0-20.51,0-30.77,0-6-4.12-10.1-10.14-10.1Zm-33.71,21.77c-.02-2.69,2.14-4.86,4.83-4.86s4.86,2.16,4.83,4.86c-.03,2.67-2.16,4.77-4.83,4.77-2.65,0-4.81-2.13-4.83-4.77Zm27.72,17.83c-.6,2.82-2.95,4.76-5.84,4.82-2.67.06-5.35.06-8.02,0-3.32-.08-5.84-2.61-5.98-5.92-.03-.64-.03-1.29,0-1.93.05-1.35.85-2.11,2.26-2.12,2.58-.01,5.16,0,7.74,0s5.04,0,7.55,0c1.7,0,2.45.72,2.45,2.39,0,.92.04,1.86-.15,2.75Zm3.11-13.06c-2.65-.02-4.78-2.18-4.76-4.84.02-2.71,2.18-4.81,4.9-4.79,2.65.03,4.78,2.19,4.77,4.84-.01,2.68-2.2,4.81-4.91,4.79Z"/>
    </clipPath>
  </defs>
  <g id="Capa_1-2" data-name="Capa 1">
    <g>
      <g>
        <g>
          <g>
            <path class="cls-1" d="m31.39,60.24c-1.92-1.19-3.97-2.22-6.15-3.1s-4.24-1.76-6.19-2.66c-1.95-.9-3.55-1.98-4.8-3.23-1.25-1.25-1.87-2.8-1.87-4.66,0-2.21.78-3.91,2.35-5.1,1.57-1.19,3.54-1.79,5.93-1.79s4.39.47,6.19,1.4l2.79,8.54,5.49-.35-.96-12.73c-1.1-.52-2.38-.96-3.84-1.31-1.45-.35-2.95-.62-4.49-.83-1.54-.2-2.98-.3-4.32-.3-4.24,0-7.98.67-11.2,2.01-3.23,1.34-5.73,3.2-7.5,5.58-1.77,2.38-2.66,5.12-2.66,8.2,0,2.91.61,5.3,1.83,7.19,1.22,1.89,2.77,3.43,4.66,4.62,1.89,1.19,3.91,2.19,6.06,3.01,2.15.81,4.18,1.67,6.1,2.57,1.92.9,3.49,1.96,4.71,3.18,1.22,1.22,1.83,2.85,1.83,4.88,0,1.86-.7,3.34-2.09,4.45-1.39,1.11-3.4,1.66-6.02,1.66-1.45,0-2.98-.2-4.58-.61-1.6-.41-2.98-1.02-4.14-1.83l-2.96-8.98-5.58.35.44,12.9c2.09,1.16,4.61,2.09,7.54,2.79,2.93.7,5.65,1.05,8.15,1.05,4.36,0,8.18-.67,11.46-2.01,3.28-1.34,5.83-3.18,7.63-5.54,1.8-2.35,2.7-5.01,2.7-7.98,0-2.79-.61-5.09-1.83-6.89-1.22-1.8-2.79-3.3-4.71-4.49Z"/>
            <path class="cls-1" d="m59.07,77.63c-.09-1.74-.13-3.57-.13-5.49v-11.07c0-2.38.04-4.52.13-6.41.09-1.89.22-3.76.39-5.62l-2.35-1.48-16.04,3.92v3.92l5.84,1.22c.29,1.45.49,2.88.61,4.27.12,1.4.17,2.94.17,4.62l-.09,6.63c0,1.4-.03,2.73-.09,4.01-.06,1.28-.13,2.33-.22,3.14-.09.81-.16,1.37-.22,1.66l-5.75,1.22.26,4.18h23.37l.26-4.18-5.75-1.22c-.17-.46-.31-1.57-.39-3.31Z"/>
            <path class="cls-1" d="m98.04,77.59c-1.6.73-3.42,1.09-5.45,1.09-3.66,0-6.58-1.25-8.76-3.75-1.91-2.19-2.98-4.98-3.22-8.37h24.36v-2.09c0-5.06-1.4-9.17-4.18-12.34-2.79-3.17-6.74-4.75-11.86-4.75-3.43-.06-6.64.78-9.63,2.53-2.99,1.74-5.41,4.14-7.24,7.19-1.83,3.05-2.75,6.61-2.75,10.68,0,3.66.81,6.95,2.44,9.85,1.63,2.91,3.91,5.2,6.84,6.89,2.93,1.69,6.29,2.53,10.07,2.53s6.89-.9,9.85-2.7c2.96-1.8,5.26-4.45,6.89-7.93l-2.62-2.53c-1.57,1.74-3.15,2.98-4.75,3.71Zm-16.48-20.49c.67-1.66,1.6-2.89,2.79-3.71,1.19-.81,2.48-1.22,3.88-1.22,2.15,0,3.82.8,5.01,2.4,1.19,1.6,1.79,3.79,1.79,6.58v.87h-14.43c.1-1.92.41-3.57.96-4.93Z"/>
            <path class="cls-1" d="m176.55,77.59c-.06-1.71-.09-3.56-.09-5.54l-.17-8.98c0-3.31-.58-6.13-1.74-8.46-1.16-2.32-2.81-4.11-4.93-5.36-2.12-1.25-4.55-1.87-7.28-1.87s-5.27.71-7.63,2.14c-1.83,1.11-3.57,2.65-5.24,4.61-1.21-2.24-2.78-3.93-4.69-5.04-1.95-1.13-4.08-1.7-6.41-1.7-2.15,0-4.24.54-6.28,1.61-2.04,1.08-3.95,2.8-5.75,5.19l-.26-.09.44-5.06-2.35-1.48-15.34,3.92v3.92l5.58,1.22c.17.99.32,1.96.44,2.92.12.96.19,1.92.22,2.88.03.96.07,1.99.13,3.1l-.09,6.63c0,1.4-.03,2.72-.09,3.97-.06,1.25-.13,2.3-.22,3.14-.09.84-.16,1.41-.22,1.7l-5.4,1.4.35,4.01h21.88l.26-4.01-4.88-1.4c-.12-.46-.22-1.57-.31-3.31-.09-1.74-.13-3.57-.13-5.49v-12.9c.87-1.22,1.96-2.15,3.27-2.79,1.31-.64,2.6-.96,3.88-.96s2.35.26,3.4.78c1.05.52,1.87,1.41,2.48,2.66.61,1.25.92,2.92.92,5.01l.09,8.2c0,1.05-.02,2.15-.04,3.31-.03,1.16-.07,2.22-.13,3.18-.06.96-.15,1.73-.26,2.31l-4.53,1.4.26,4.01h20.75l.26-4.01-4.8-1.4c-.12-.52-.2-1.64-.26-3.36-.06-1.71-.09-3.56-.09-5.54l-.17-9.07c0-1.54-.12-2.95-.35-4.26.84-.97,1.81-1.74,2.92-2.28,1.31-.64,2.66-.96,4.05-.96s2.54.29,3.62.87c1.07.58,1.95,1.57,2.62,2.96.67,1.4,1,3.2,1,5.41l.17,7.41c0,1.05-.03,2.15-.09,3.31-.06,1.16-.1,2.22-.13,3.18-.03.96-.1,1.73-.22,2.31l-4.53,1.4.26,4.01h21.36l.26-4.01-5.41-1.4c-.17-.52-.29-1.64-.35-3.36Z"/>
            <path class="cls-1" d="m220.66,49.51c-2.44-1.42-5.12-2.14-8.02-2.14-2.38,0-4.64.65-6.76,1.96-2.12,1.31-3.82,2.83-5.1,4.58l-.26-.09c.17-4.59.29-8.43.35-11.51.06-3.08.13-5.8.22-8.15.09-2.35.22-4.72.39-7.11l-2.44-1.48-16.39,4.27.17,3.75,6.45.78c0,.58.01,1.5.04,2.75.03,1.25.06,2.73.09,4.45.03,1.71.06,3.68.09,5.88.03,2.21.04,4.68.04,7.41v16.87c0,2.12-.02,4.18-.04,6.19-.03,2.01-.1,3.97-.22,5.88,2.62,1.05,5.25,1.85,7.89,2.4,2.64.55,5.33.83,8.06.83,4.88,0,9.11-.99,12.69-2.96,3.57-1.98,6.3-4.62,8.19-7.93,1.89-3.31,2.83-6.97,2.83-10.99,0-3.72-.77-6.9-2.31-9.55-1.54-2.64-3.53-4.68-5.97-6.1Zm-6.5,27.99c-1.77,2-4,3.01-6.67,3.01-1.22,0-2.43-.2-3.62-.61-1.19-.41-2.22-.93-3.1-1.57v-19.7c.87-.93,1.89-1.66,3.05-2.18,1.16-.52,2.38-.78,3.66-.78,2.5,0,4.69.95,6.58,2.83,1.89,1.89,2.83,4.98,2.83,9.29-.06,4.48-.97,7.72-2.75,9.72Z"/>
            <path class="cls-1" d="m264.78,48.95c-1.16-.87-2.53-1.31-4.1-1.31-1.86,0-3.65.58-5.36,1.74-1.72,1.16-3.39,3.4-5.01,6.71l-.26-.09.35-7.06-2.35-1.4-15.08,3.92v3.92l5.58,1.22c.29,1.51.49,2.95.61,4.32.12,1.37.17,2.89.17,4.58l-.09,6.63c0,1.4-.04,2.72-.13,3.97-.09,1.25-.16,2.3-.22,3.14-.06.84-.12,1.41-.17,1.7l-5.41,1.4.26,4.01h24.85l.26-4.18-7.58-1.31c-.06-.41-.12-1.16-.17-2.27-.06-1.1-.1-2.51-.13-4.23-.03-1.71-.07-3.65-.13-5.8l-.09-6.89c.64-1.22,1.35-2.34,2.14-3.36.43-.56.89-1.06,1.37-1.51.83.66,1.61,1.16,2.34,1.46,1.1.47,2.35.7,3.75.7,1.69,0,3.17-.52,4.45-1.57,1.28-1.05,1.92-2.5,1.92-4.36s-.58-3.23-1.74-4.1Z"/>
            <path class="cls-1" d="m304.88,78.5c-.29-.52-.48-1.23-.57-2.14-.09-.9-.13-2.19-.13-3.88l.26-12.12c0-4.01-1.53-7.18-4.58-9.5-3.05-2.32-7.16-3.49-12.34-3.49-1.34.12-2.91.54-4.71,1.26-1.8.73-3.57,1.6-5.32,2.62-1.74,1.02-3.18,2.11-4.32,3.27-1.13,1.16-1.7,2.3-1.7,3.4,0,1.8.93,3.1,2.79,3.88,1.86.78,4.21.89,7.06.3l.44-5.32c.12-1.22.36-2.08.74-2.57.38-.49,1.03-.74,1.96-.74,1.45,0,2.83.35,4.14,1.05,1.31.7,2.34,1.6,3.1,2.7.75,1.11,1.13,2.27,1.13,3.49v3.14l-13.69,4.1c-2.73.76-4.75,1.85-6.06,3.27-1.31,1.43-1.96,3.18-1.96,5.27,0,1.45.51,2.99,1.53,4.62,1.02,1.63,2.49,3.02,4.4,4.18s4.24,1.74,6.97,1.74c1.74,0,3.56-.64,5.45-1.92,1.48-1,2.94-2.31,4.37-3.88l.91,2.31c.87,2.33,2.44,3.49,4.71,3.49.81,0,1.67-.12,2.57-.35.9-.23,1.87-.55,2.92-.96l5.58-2.44v-3.75l-5.67-1.05Zm-11.94-1.31c-.64.76-1.35,1.28-2.14,1.57-.78.29-1.58.44-2.4.44-1.4,0-2.65-.54-3.75-1.61-1.11-1.07-1.66-2.28-1.66-3.62,0-1.16.32-2.09.96-2.79.64-.7,1.66-1.13,3.05-1.31l5.93-1.13v8.46Z"/>
          </g>
          <g>
            <path class="cls-1" d="m71.1,10.03l-.25-.99c-.16-.63-.57-1.17-1.13-1.5-.38-.23-.81-.34-1.25-.34-.2,0-.41.03-.61.08l-.99.25c-7.55,1.94-13.89,6.7-17.86,13.4-3.97,6.71-5.09,14.56-3.15,22.1l.17.66c.03.12.05.24.08.36.16.63.57,1.17,1.13,1.5.38.23.81.34,1.25.34.2,0,.41-.03.61-.08.36-.09.7-.19,1.05-.3,7.52-1.95,13.84-6.7,17.8-13.38,3.97-6.71,5.09-14.56,3.15-22.1Z"/>
            <path class="cls-4" d="m44.61,12.66h0c15.31,0,27.74,12.43,27.74,27.74h0c-15.31,0-27.74-12.43-27.74-27.74h0Z" transform="translate(69.65 -36.71) rotate(75.61)"/>
            <path class="cls-6" d="m46.09,24.44h0c9.46,0,17.15,7.68,17.15,17.15h0c-9.46,0-17.15-7.68-17.15-17.15h0Z" transform="translate(73.06 -28.14) rotate(75.61)"/>
          </g>
        </g>
        <g>
          <path class="cls-1" d="m376.11,61.63c-2.53-1.9-5.92-3.11-10.18-3.64,3-.6,5.55-1.63,7.62-3.11,3-2.15,4.5-4.84,4.5-8.07,0-4.24-1.54-7.37-4.63-9.4s-7.87-3.04-14.34-3.04h-27.71l-.26,4.94,5.74,1.85c.18.3.32,1.8.44,4.5.12,2.71.18,5.79.18,9.26v10.59c0,3.59-.06,6.74-.18,9.44-.12,2.71-.26,4.21-.44,4.5l-5.74,1.68.26,5.03h25.68c7.59,0,13.43-1.32,17.52-3.97,4.09-2.65,6.13-6.44,6.13-11.38,0-3.82-1.53-6.88-4.59-9.18Zm-23.96-18.04c.03-1.85.07-3.07.13-3.66h1.59c3,0,5.15.77,6.44,2.29,1.29,1.53,1.94,3.53,1.94,6,0,2.71-.65,4.8-1.94,6.26-1.29,1.47-3.35,2.21-6.18,2.21-.41,0-.87-.01-1.37-.04-.19-.01-.42-.02-.66-.04v-6.36c0-2.59.01-4.81.04-6.66Zm10.63,34.54c-1.41,1.47-3.32,2.21-5.74,2.21-.88,0-1.75-.07-2.6-.22-.85-.15-1.54-.34-2.07-.57-.06-.76-.12-1.91-.18-3.44-.06-1.53-.09-3.38-.09-5.56v-7.4c.28-.02.54-.04.79-.06.65-.03,1.2-.04,1.68-.04,3.71,0,6.35.74,7.94,2.21,1.59,1.47,2.38,3.82,2.38,7.06,0,2.41-.71,4.35-2.12,5.82Z"/>
          <path class="cls-1" d="m418.01,48.66c-3.15-1.71-6.75-2.56-10.81-2.56-3.77,0-7.35.79-10.77,2.38-3.41,1.59-6.19,3.94-8.34,7.06-2.15,3.12-3.22,6.97-3.22,11.56,0,3.82.94,7.24,2.82,10.24,1.88,3,4.47,5.34,7.76,7.01,3.29,1.68,7.06,2.51,11.29,2.51,3.94,0,7.51-.93,10.72-2.78,3.21-1.85,5.76-4.35,7.68-7.5,1.91-3.15,2.87-6.69,2.87-10.63s-.88-7.31-2.65-10.28c-1.76-2.97-4.22-5.31-7.37-7.01Zm-5.78,26.78c-.35,1.62-.9,2.82-1.63,3.62-.74.79-1.69,1.19-2.87,1.19-1.41,0-2.68-.73-3.79-2.21-1.12-1.47-2-3.45-2.65-5.96-.65-2.5-.97-5.28-.97-8.34,0-3.59.46-6.4,1.37-8.43.91-2.03,2.19-3.04,3.84-3.04,2.18,0,3.93,1.59,5.25,4.76,1.32,3.18,1.99,7.32,1.99,12.44,0,2.35-.18,4.34-.53,5.96Z"/>
          <path class="cls-1" d="m460.18,74.78c-.76.65-1.65,1.15-2.65,1.5-1,.35-1.94.53-2.82.53-1.88,0-3.38-.41-4.5-1.24-1.12-.82-1.68-2.26-1.68-4.32l.16-18h11.84v-6.35h-11.77l.13-10.06h-3.09l-17.74,13.24v3.18h6.18l-.26,18.88c0,5,1.4,8.75,4.19,11.25,2.79,2.5,6.4,3.75,10.81,3.75,3.35,0,6.31-.87,8.87-2.6s4.22-4.07,4.99-7.01l-2.65-2.74Z"/>
        </g>
      </g>
      <g>
        <path class="cls-1" d="m567.29,62.7c-.03,3.31-2.65,6.19-5.82,6.42-.85.06-1.75.09-2.85.09-.69,0-1.4-.01-2.08-.02-.67-.01-1.37-.02-2.05-.02-.04,0-.08,0-.12,0v2.25c0,7.04-4.6,12.1-11.35,12.76.52.68.9,1.47,1.1,2.35.64,2.79-.76,5.67-3.33,6.84-.33.15-.68.27-1.04.37.04.19.07.39.07.6v5.13c0,1.5-1.21,2.71-2.71,2.71h-22.86c-1.5,0-2.71-1.21-2.71-2.71v-5.13c0-.2.02-.4.06-.59-2.38-.64-4.16-2.57-4.47-5.07-.2-1.69.25-3.28,1.19-4.5-6.75-.66-11.34-5.72-11.34-12.74v-2.31s-.08,0-.12,0c-.68,0-1.39.01-2.08.03-.71.01-1.45.03-2.18.03-1.18,0-2.15-.04-3.07-.13-3.04-.29-5.45-3.09-5.48-6.36-.05-4.77-.05-9.12,0-13.31.04-3.47,2.7-6.27,6.18-6.5.79-.05,1.64-.08,2.66-.08.66,0,1.32,0,1.98.02.65,0,1.31.02,1.98.02.04,0,.08,0,.12,0,0-.82,0-1.65,0-2.48,0-5.98,3.86-10.88,9.58-12.2.95-.22,1.98-.32,3.24-.33,2.16,0,4.31-.01,6.47-.01-2.41-9.61.34-19.88,7.49-27.03.25-.25.55-.45.88-.59.33-.14.68-.21,1.04-.21.72,0,1.41.29,1.92.8,5.37,5.37,8.32,12.51,8.32,20.1,0,2.35-.29,4.67-.85,6.92,2.15,0,4.3,0,6.45,0,7.56,0,12.85,5.28,12.85,12.81v2.32s.08,0,.12,0c.69,0,1.4-.01,2.09-.03.71-.01,1.45-.03,2.18-.03,1.18,0,2.15.04,3.07.13,3.03.29,5.43,3.09,5.46,6.37.04,4.73.04,9.08,0,13.31Z"/>
        <g>
          <path class="cls-4" d="m514.24,99.45v-5.13h22.86v5.13h-22.86Z"/>
          <path class="cls-2" d="m525.76,30.53c-1.5,0-3.01,0-4.52,0h-1.25c1.15,2.87,2.84,5.57,5.08,7.96.04.05.09.1.13.14.15.17.31.33.48.5.36-.36.71-.74,1.03-1.13,2.01-2.26,3.56-4.79,4.64-7.46h-5.59Zm15.75,0c-2.47,0-4.93,0-7.4,0-1.33,3.51-3.41,6.73-6.14,9.47-.22.25-.45.5-.69.74-.14.14-.29.25-.45.35-.35.2-.75.32-1.16.32-.6,0-1.18-.24-1.61-.66-.08-.08-.16-.16-.23-.25l-.45-.45c-2.75-2.75-4.83-5.98-6.16-9.51-2.47,0-4.93,0-7.4.01-.88,0-1.79.06-2.65.26-4.51,1.04-7.47,4.83-7.48,9.57-.01,10.35,0,20.7,0,31.05,0,6,4.11,10.11,10.14,10.11,10.57.01,21.13.01,31.69,0,6.03,0,10.13-4.12,10.13-10.12,0-10.26,0-20.51,0-30.77,0-6-4.12-10.1-10.14-10.1Zm-33.71,21.77c-.02-2.69,2.14-4.86,4.83-4.86s4.86,2.16,4.83,4.86c-.03,2.67-2.16,4.77-4.83,4.77-2.65,0-4.81-2.13-4.83-4.77Zm27.72,17.83c-.6,2.82-2.95,4.76-5.84,4.82-2.67.06-5.35.06-8.02,0-3.32-.08-5.84-2.61-5.98-5.92-.03-.64-.03-1.29,0-1.93.05-1.35.85-2.11,2.26-2.12,2.58-.01,5.16,0,7.74,0s5.04,0,7.55,0c1.7,0,2.45.72,2.45,2.39,0,.92.04,1.86-.15,2.75Zm3.11-13.06c-2.65-.02-4.78-2.18-4.76-4.84.02-2.71,2.18-4.81,4.9-4.79,2.65.03,4.78,2.19,4.77,4.84-.01,2.68-2.2,4.81-4.91,4.79Z"/>
          <path class="cls-1" d="m535.52,70.13c-.6,2.82-2.95,4.76-5.84,4.82-2.67.06-5.35.06-8.02,0-3.32-.08-5.84-2.61-5.98-5.92-.03-.64-.03-1.29,0-1.93.05-1.35.85-2.11,2.26-2.12,2.58-.01,5.16,0,7.74,0s5.04,0,7.55,0c1.7,0,2.45.72,2.45,2.39,0,.92.04,1.86-.15,2.75Z"/>
          <path class="cls-4" d="m543.54,52.28c-.01,2.68-2.2,4.81-4.91,4.79-2.65-.02-4.78-2.18-4.76-4.84.02-2.71,2.18-4.81,4.9-4.79,2.65.03,4.78,2.19,4.77,4.84Z"/>
          <path class="cls-4" d="m517.46,52.3c-.03,2.67-2.16,4.77-4.83,4.77-2.65,0-4.81-2.13-4.83-4.77-.02-2.69,2.14-4.86,4.83-4.86s4.86,2.16,4.83,4.86Z"/>
          <path class="cls-4" d="m496.86,45.55v20.86c-2.37,0-4.73.17-7.06-.06-1.72-.17-3.02-1.92-3.04-3.69-.04-4.42-.05-8.84,0-13.26.02-2.01,1.58-3.69,3.65-3.83,2.1-.14,4.22-.03,6.44-.03Z"/>
          <path class="cls-4" d="m554.49,66.46v-20.8c2.39,0,4.75-.17,7.08.06,1.71.16,3,1.93,3.02,3.7.04,4.42.04,8.84,0,13.26-.02,1.87-1.49,3.62-3.31,3.75-2.22.16-4.46.04-6.78.04Z"/>
          <path class="cls-4" d="m525.7,84.5c4.17,0,8.35-.01,12.52,0,1.61,0,2.9,1.09,3.25,2.62.34,1.49-.41,3.13-1.81,3.76-.49.22-1.06.35-1.6.35-8.25.02-16.51.03-24.76,0-1.86,0-3.28-1.24-3.48-2.91-.2-1.69.75-3.22,2.37-3.69.43-.13.91-.15,1.36-.15,4.05-.01,8.1,0,12.15,0Z"/>
        </g>
        <g>
          <path class="cls-1" d="m533.21,20.9c0,3.27-.62,6.55-1.86,9.63-1.08,2.67-2.62,5.2-4.64,7.46-.32.39-.67.77-1.03,1.13-.16-.17-.32-.33-.48-.5-.05-.05-.09-.09-.13-.14-2.23-2.38-3.92-5.09-5.08-7.96-3.73-9.28-1.84-20.3,5.69-27.82,5.02,5.02,7.53,11.6,7.53,18.19Z"/>
          <path class="cls-4" d="m533.21,20.9c0,3.27-.62,6.55-1.86,9.63-1.08,2.67-2.62,5.2-4.64,7.46-.33.38-.68.75-1.04,1.11-.16-.16-.31-.32-.46-.48-.05-.05-.09-.09-.13-.14-2.23-2.38-3.92-5.09-5.08-7.96-3.73-9.28-1.84-20.3,5.69-27.82,5.02,5.02,7.53,11.6,7.53,18.19Z"/>
          <path class="cls-6" d="m530.34,27.88c0,.89-.07,1.78-.22,2.65-.45,2.68-1.59,5.26-3.41,7.46-.32.39-.67.77-1.03,1.13-.16-.17-.32-.33-.48-.5-.05-.05-.09-.09-.13-.14-2.07-2.31-3.34-5.08-3.82-7.96-.82-4.9.66-10.11,4.45-13.89,3.1,3.11,4.65,7.17,4.65,11.24Z"/>
        </g>
        <g class="cls-3">
          <path class="cls-1" d="m546.53,52.3c-.02,4.34-3.56,7.79-7.94,7.75-4.29-.04-7.73-3.53-7.69-7.83.03-4.38,3.53-7.79,7.93-7.75,4.28.04,7.73,3.55,7.71,7.83Z"/>
          <path class="cls-1" d="m520.45,52.33c-.05,4.32-3.49,7.72-7.81,7.72-4.3,0-7.79-3.45-7.82-7.72-.04-4.35,3.47-7.87,7.82-7.87s7.86,3.5,7.81,7.87Z"/>
        </g>
      </g>
    </g>
  </g>
</svg>